<svg width="30" height="31" viewBox="0 0 30 31" fill="none" xmlns="http://www.w3.org/2000/svg">
<path d="M21.413 13.5087C21.0323 13.5087 20.7128 13.2089 20.6931 12.8237C20.5727 10.3772 19.4194 9.17795 17.0648 9.05102C16.6665 9.02914 16.3623 8.68995 16.3842 8.29167C16.4061 7.89557 16.7431 7.58702 17.1414 7.61109C20.2488 7.7774 21.9754 9.55653 22.133 12.7515C22.1527 13.1498 21.8463 13.489 21.4502 13.5087C21.4371 13.5087 21.4262 13.5087 21.413 13.5087Z" fill="#7C529E"/>
<path d="M25.1137 14.7482C25.1072 14.7482 25.1028 14.7482 25.0962 14.7482C24.6979 14.7394 24.3828 14.409 24.3916 14.0107C24.4485 11.5466 23.7438 9.55083 22.2404 7.90957C20.7436 6.27268 18.6887 5.37983 15.9555 5.1785C15.5594 5.15005 15.2596 4.80429 15.2902 4.4082C15.3187 4.00992 15.6644 3.71231 16.0605 3.74075C19.1352 3.96615 21.5708 5.04064 23.304 6.93575C25.0459 8.83743 25.8972 11.2271 25.8337 14.0435C25.8249 14.4352 25.5033 14.7482 25.1137 14.7482Z" fill="#7C529E"/>
<path d="M28.9024 16.231C28.5063 16.231 28.1847 15.9115 28.1825 15.5154C28.1474 11.1059 26.8782 7.74021 24.3003 5.22142C21.7531 2.74201 18.534 1.46839 14.7328 1.44213C14.3346 1.43775 14.0151 1.11388 14.0173 0.715598C14.0194 0.319506 14.3433 7.25503e-06 14.7372 7.25503e-06H14.7438C18.9301 0.0284554 22.484 1.43994 25.307 4.1907C28.1343 6.95022 29.5874 10.7579 29.6224 15.5045C29.6268 15.9028 29.3073 16.2288 28.909 16.231H28.9024Z" fill="#7C529E"/>
<path d="M17.2464 22.4459C17.2464 22.4459 18.2596 22.5357 18.8067 21.8595L19.8702 20.5202C20.3823 19.8571 21.6231 19.4326 22.8354 20.1088C23.5116 20.4917 24.7218 21.2402 25.4812 21.7982C26.2887 22.3912 27.9365 23.7633 27.9409 23.7677C28.7265 24.4308 28.9081 25.4046 28.3742 26.4309C28.3742 26.4353 28.3676 26.4462 28.3676 26.4528C27.8183 27.4223 27.083 28.3326 26.153 29.1795C26.1442 29.1839 26.1442 29.1904 26.1333 29.1948C25.3717 29.8316 24.6211 30.1927 23.8837 30.2824C23.7961 30.2999 23.6889 30.3065 23.5554 30.3021C23.2359 30.3043 22.9164 30.2584 22.6013 30.1555L22.5772 30.1205C21.4415 29.801 19.5485 29.0001 16.3929 27.2603C14.3425 26.1289 12.6377 24.9757 11.1978 23.8268C10.4384 23.2272 9.65719 22.5466 8.86282 21.7566C8.83656 21.7303 8.8103 21.7041 8.78404 21.6778C8.75778 21.6516 8.73152 21.6253 8.70526 21.599C8.67681 21.5728 8.65274 21.5465 8.62648 21.5181C8.60022 21.494 8.57396 21.4677 8.5477 21.4415C7.7577 20.6471 7.07493 19.8637 6.47533 19.1043C5.32644 17.6644 4.17318 15.9597 3.04399 13.9092C1.30425 10.7558 0.503313 8.86065 0.183813 7.72708L0.148799 7.70301C0.0459465 7.38789 -0.00219709 7.06839 0.00217962 6.7467C-0.00438544 6.61321 0.00436863 6.50598 0.0218754 6.41845C0.10941 5.68316 0.470487 4.93255 1.1073 4.16882C1.11386 4.16007 1.11824 4.16007 1.12262 4.14912C1.9717 3.21907 2.87986 2.48379 3.85149 1.93451C3.85587 1.93451 3.86681 1.93013 3.87119 1.93013C4.89971 1.39618 5.87353 1.57562 6.53441 2.36343C6.54098 2.36781 7.91307 4.01563 8.50393 4.82095C9.06415 5.58031 9.81256 6.79047 10.1933 7.46667C10.8695 8.6812 10.4472 9.922 9.78193 10.4319L8.44266 11.4976C7.76864 12.0425 7.85618 13.0557 7.85618 13.0557C7.85618 13.0557 9.83664 20.5552 17.2464 22.4459Z" fill="#7C529E"/>
</svg>
