<svg width="90" height="90" viewBox="0 0 90 90" fill="none" xmlns="http://www.w3.org/2000/svg">
<path d="M45 77.5H54.25L54.25 52.2157C56.4216 51.1988 58.4564 49.7936 60.25 48C63.6271 44.6229 65.6275 40.3904 66.2513 36M45 77.5H35.75L35.75 51.9735C33.7659 50.9797 31.9052 49.6552 30.25 48C21.9657 39.7157 21.9657 26.2843 30.25 18C32.0847 16.1653 34.1718 14.7369 36.3996 13.7149L36.3996 27.3119C36.3996 27.3119 35.75 32.3119 44.8654 32.3119C53.9808 32.3119 53.3312 27.3119 53.3312 27.3119L53.3312 13.3804C55.8478 14.4157 58.2056 15.9556 60.25 18C60.5756 18.3256 60.8884 18.6591 61.1884 19M45 77.5V60" stroke="#C70629" stroke-width="3"/>
<line x1="82" y1="77.5" x2="9" y2="77.5" stroke="#C70629" stroke-width="3"/>
<path d="M66.5 17L74.7272 21.75V31.25L66.5 36L58.2728 31.25V21.75L66.5 17Z" stroke="#C70629" stroke-width="3"/>
<circle cx="66.5" cy="26.5" r="2.5" fill="#C70629"/>
</svg>
