<svg width="96" height="96" viewBox="0 0 96 96" fill="none" xmlns="http://www.w3.org/2000/svg">
<mask id="path-1-inside-1" fill="white">
<path fill-rule="evenodd" clip-rule="evenodd" d="M82.1704 36.9361L74.667 23.9398L67.0215 27.3253C65.7703 26.2254 64.4331 25.2472 63.0287 24.3958L64.3388 16.0147L49.8433 12.1306L46.6764 20.3313C45.1616 20.4191 43.6458 20.6297 42.1437 20.967L36.9361 13.8297L23.9398 21.3331L27.5171 29.4116C26.4739 30.5438 25.5335 31.7513 24.7001 33.0192L16.0146 31.6616L12.1306 46.157L20.0439 49.213C20.0789 50.855 20.2575 52.5022 20.5845 54.1358L13.8298 59.0641L21.3332 72.0604L28.5824 68.8504C29.907 70.1429 31.3434 71.2887 32.866 72.281L31.6616 79.9856L46.1571 83.8697L48.857 76.8783C50.8014 76.8443 52.7537 76.6093 54.6824 76.1648L59.0641 82.1702L72.0604 74.6668L69.0504 67.8694C70.3997 66.4212 71.5793 64.8481 72.5809 63.1812L79.9856 64.3387L83.8696 49.8432L76.595 47.0339C76.497 45.2192 76.2228 43.4024 75.7658 41.609L82.1704 36.9361Z"/>
</mask>
<path d="M60.1472 51.2546L61.5961 51.6429L60.1472 51.2546ZM44.7455 60.1468L44.3573 61.5957L44.7455 60.1468ZM50.8668 37.3018C56.7752 38.885 60.2815 44.958 58.6983 50.8664L61.5961 51.6429C63.6081 44.1341 59.152 36.416 51.6433 34.4041L50.8668 37.3018ZM58.6983 50.8664C57.1152 56.7748 51.0421 60.2811 45.1337 58.6979L44.3573 61.5957C51.8661 63.6077 59.5841 59.1516 61.5961 51.6429L58.6983 50.8664ZM45.1337 58.6979C39.2254 57.1148 35.7191 51.0417 37.3022 45.1333L34.4045 44.3569C32.3925 51.8657 36.8485 59.5837 44.3573 61.5957L45.1337 58.6979ZM74.667 23.9398L77.265 22.4398L75.9172 20.1052L73.4523 21.1967L74.667 23.9398ZM82.1704 36.9361L83.9386 39.3596L86.1163 37.7707L84.7685 35.4361L82.1704 36.9361ZM67.0215 27.3253L65.0407 29.5784L66.4818 30.8453L68.2362 30.0684L67.0215 27.3253ZM63.0287 24.3958L60.0647 23.9325L59.7541 25.919L61.4735 26.9613L63.0287 24.3958ZM64.3388 16.0147L67.3028 16.478L67.7191 13.8146L65.1153 13.1169L64.3388 16.0147ZM49.8433 12.1306L50.6198 9.23284L48.0159 8.53514L47.0447 11.0499L49.8433 12.1306ZM46.6764 20.3313L46.8501 23.3262L48.7789 23.2144L49.475 21.412L46.6764 20.3313ZM42.1437 20.967L39.7202 22.7352L40.8804 24.3254L42.801 23.8941L42.1437 20.967ZM36.9361 13.8297L39.3596 12.0614L37.7707 9.88371L35.4361 11.2316L36.9361 13.8297ZM23.9398 21.3331L22.4398 18.735L20.1052 20.0829L21.1967 22.5478L23.9398 21.3331ZM27.5171 29.4116L29.7234 31.4444L31.0572 29.9968L30.2602 28.1969L27.5171 29.4116ZM24.7001 33.0192L24.2367 35.9832L26.1456 36.2816L27.2069 34.6671L24.7001 33.0192ZM16.0146 31.6616L16.478 28.6976L13.8146 28.2812L13.1169 30.8851L16.0146 31.6616ZM12.1306 46.157L9.23281 45.3806L8.5351 47.9845L11.0498 48.9556L12.1306 46.157ZM20.0439 49.213L23.0432 49.1489L23.0003 47.1387L21.1246 46.4144L20.0439 49.213ZM20.5845 54.1358L22.3527 56.5593L23.9027 55.4283L23.5261 53.5469L20.5845 54.1358ZM13.8298 59.0641L12.0616 56.6406L9.88389 58.2296L11.2318 60.5641L13.8298 59.0641ZM21.3332 72.0604L18.7352 73.5604L20.083 75.895L22.5479 74.8035L21.3332 72.0604ZM28.5824 68.8504L30.6775 66.7032L29.2242 65.2852L27.3677 66.1073L28.5824 68.8504ZM32.866 72.281L35.83 72.7444L36.1297 70.8271L34.504 69.7676L32.866 72.281ZM31.6616 79.9856L28.6976 79.5223L28.2813 82.1857L30.8852 82.8834L31.6616 79.9856ZM46.1571 83.8697L45.3806 86.7675L47.9845 87.4652L48.9557 84.9504L46.1571 83.8697ZM48.857 76.8783L48.8046 73.8787L46.7858 73.914L46.0585 75.7975L48.857 76.8783ZM54.6824 76.1648L57.1059 74.3966L55.9387 72.7967L54.0088 73.2414L54.6824 76.1648ZM59.0641 82.1702L56.6407 83.9385L58.2296 86.1162L60.5641 84.7683L59.0641 82.1702ZM72.0604 74.6668L73.5604 77.2649L75.895 75.917L74.8035 73.4521L72.0604 74.6668ZM69.0504 67.8694L66.8555 65.8243L65.5055 67.2733L66.3073 69.0841L69.0504 67.8694ZM72.5809 63.1812L73.0442 60.2172L71.0494 59.9054L70.0094 61.6361L72.5809 63.1812ZM79.9856 64.3387L79.5223 67.3027L82.1857 67.7191L82.8834 65.1152L79.9856 64.3387ZM83.8696 49.8432L86.7674 50.6197L87.4651 48.0158L84.9504 47.0447L83.8696 49.8432ZM76.595 47.0339L73.5994 47.1958L73.7041 49.1334L75.5143 49.8325L76.595 47.0339ZM75.7658 41.609L73.9976 39.1855L72.3574 40.3823L72.8587 42.3498L75.7658 41.609ZM72.0689 25.4398L79.5723 38.4361L84.7685 35.4361L77.265 22.4398L72.0689 25.4398ZM68.2362 30.0684L75.8817 26.6829L73.4523 21.1967L65.8068 24.5822L68.2362 30.0684ZM61.4735 26.9613C62.7287 27.7222 63.9233 28.5961 65.0407 29.5784L69.0023 25.0722C67.6174 23.8547 66.1375 22.7722 64.5838 21.8304L61.4735 26.9613ZM61.3748 15.5513L60.0647 23.9325L65.9927 24.8592L67.3028 16.478L61.3748 15.5513ZM49.0669 15.0284L63.5623 18.9125L65.1153 13.1169L50.6198 9.23284L49.0669 15.0284ZM49.475 21.412L52.6419 13.2114L47.0447 11.0499L43.8778 19.2505L49.475 21.412ZM42.801 23.8941C44.1425 23.5929 45.4966 23.4047 46.8501 23.3262L46.5027 17.3363C44.8267 17.4335 43.1491 17.6665 41.4864 18.0399L42.801 23.8941ZM34.5126 15.5979L39.7202 22.7352L44.5672 19.1988L39.3596 12.0614L34.5126 15.5979ZM25.4398 23.9311L38.4361 16.4277L35.4361 11.2316L22.4398 18.735L25.4398 23.9311ZM30.2602 28.1969L26.6829 20.1184L21.1967 22.5478L24.774 30.6263L30.2602 28.1969ZM27.2069 34.6671C27.9517 33.5342 28.7917 32.4556 29.7234 31.4444L25.3108 27.3788C24.156 28.6321 23.1154 29.9684 22.1932 31.3713L27.2069 34.6671ZM15.5513 34.6256L24.2367 35.9832L25.1634 30.0552L16.478 28.6976L15.5513 34.6256ZM15.0284 46.9335L18.9124 32.438L13.1169 30.8851L9.23281 45.3806L15.0284 46.9335ZM21.1246 46.4144L13.2113 43.3585L11.0498 48.9556L18.9631 52.0115L21.1246 46.4144ZM23.5261 53.5469C23.2341 52.088 23.0745 50.6164 23.0432 49.1489L17.0446 49.277C17.0834 51.0935 17.2809 52.9164 17.6428 54.7246L23.5261 53.5469ZM15.5981 61.4876L22.3527 56.5593L18.8162 51.7123L12.0616 56.6406L15.5981 61.4876ZM23.9313 70.5604L16.4279 57.5641L11.2318 60.5641L18.7352 73.5604L23.9313 70.5604ZM27.3677 66.1073L20.1186 69.3173L22.5479 74.8035L29.797 71.5935L27.3677 66.1073ZM34.504 69.7676C33.1434 68.881 31.8605 67.8575 30.6775 66.7032L26.4872 70.9976C27.9536 72.4284 29.5433 73.6965 31.228 74.7944L34.504 69.7676ZM34.6256 80.449L35.83 72.7444L29.902 71.8177L28.6976 79.5223L34.6256 80.449ZM46.9336 80.9719L32.4381 77.0878L30.8852 82.8834L45.3806 86.7675L46.9336 80.9719ZM46.0585 75.7975L43.3585 82.7889L48.9557 84.9504L51.6556 77.959L46.0585 75.7975ZM54.0088 73.2414C52.2863 73.6383 50.5423 73.8484 48.8046 73.8787L48.9095 79.8778C51.0604 79.8402 53.221 79.5802 55.3561 79.0882L54.0088 73.2414ZM61.4876 80.402L57.1059 74.3966L52.259 77.9331L56.6407 83.9385L61.4876 80.402ZM70.5604 72.0687L57.5641 79.5721L60.5641 84.7683L73.5604 77.2649L70.5604 72.0687ZM66.3073 69.0841L69.3173 75.8815L74.8035 73.4521L71.7935 66.6547L66.3073 69.0841ZM70.0094 61.6361C69.1143 63.1258 68.0604 64.5311 66.8555 65.8243L71.2454 69.9144C72.7389 68.3114 74.0444 66.5704 75.1524 64.7264L70.0094 61.6361ZM80.4489 61.3747L73.0442 60.2172L72.1176 66.1452L79.5223 67.3027L80.4489 61.3747ZM80.9719 49.0668L77.0878 63.5623L82.8834 65.1152L86.7674 50.6197L80.9719 49.0668ZM75.5143 49.8325L82.7889 52.6418L84.9504 47.0447L77.6758 44.2354L75.5143 49.8325ZM72.8587 42.3498C73.2669 43.9514 73.5118 45.5742 73.5994 47.1958L79.5906 46.8721C79.4822 44.8642 79.1788 42.8534 78.6729 40.8682L72.8587 42.3498ZM80.4021 34.5126L73.9976 39.1855L77.5341 44.0325L83.9386 39.3596L80.4021 34.5126Z" fill="#C70629" mask="url(#path-1-inside-1)"/>
</svg>
