<svg width="173" height="36" viewBox="0 0 173 36" fill="none" xmlns="http://www.w3.org/2000/svg">
    <g clip-path="url(#clip0)">
        <path fill-rule="evenodd" clip-rule="evenodd" d="M59.6966 24.4907L66.2859 0H75.5215L82.3977 12.111L85.6923 0H95.2574L88.6468 24.4907H79.4006L72.6094 12.4119L69.2404 24.4907H59.6966ZM119.701 24.4907L126.323 0H138.576L141.265 13.5725L151.234 0H163.584L157.005 24.4907H147.366L150.639 12.2937L141.669 24.5337H135.027L132.614 12.5409L129.309 24.5337L119.701 24.4907ZM91.9946 24.4907L98.6901 0H122.932L121.349 5.93194H106.544L105.545 9.82209H118.086L116.449 15.7863H103.855L101.538 24.48L91.9946 24.4907Z" fill="white"/>
        <path fill-rule="evenodd" clip-rule="evenodd" d="M56.6039 36L58.8145 27.8866H156.336L154.199 36H56.6039Z" fill="white"/>
        <path d="M170.864 6.3403H167.856L166.857 7.81254H164.944L170.141 0H171.831L173.011 7.75881H171.108L170.864 6.3403ZM170.704 4.96478L170.386 2.35343L168.738 4.96478H170.704Z" fill="white"/>
        <path d="M167.824 12.8955H171.778V12.9708C171.421 14.2277 170.703 15.3495 169.716 16.1946C168.841 16.9225 167.734 17.3043 166.602 17.2693C166.108 17.3236 165.608 17.254 165.146 17.0666C164.684 16.8791 164.276 16.5797 163.956 16.1946C163.661 15.7702 163.469 15.2816 163.395 14.7683C163.321 14.2549 163.367 13.7312 163.531 13.2394C163.825 12.075 164.49 11.0406 165.422 10.2949C166.402 9.53951 167.614 9.15884 168.845 9.22031C169.597 9.17332 170.343 9.37718 170.97 9.80061C171.406 10.1637 171.73 10.6445 171.905 11.1869L170.024 12.0573C169.947 11.7352 169.777 11.4435 169.535 11.2191C169.218 10.9584 168.817 10.8246 168.409 10.843C167.753 10.8299 167.113 11.0506 166.602 11.4663C166.037 11.9408 165.635 12.5841 165.454 13.3039C165.351 13.5982 165.317 13.9129 165.356 14.2226C165.395 14.5324 165.505 14.8287 165.677 15.0878C165.853 15.3007 166.078 15.4668 166.331 15.5717C166.585 15.6766 166.861 15.7171 167.133 15.6896C167.66 15.7059 168.179 15.5597 168.621 15.2705C168.96 15.0327 169.237 14.7156 169.429 14.3463H167.505L167.824 12.8955Z" fill="white"/>
        <path d="M165.901 18.7092C166.241 18.6756 166.584 18.7189 166.906 18.836C167.228 18.9531 167.519 19.1411 167.76 19.3862C167.938 19.6326 168.053 19.9185 168.098 20.2197C168.142 20.5209 168.114 20.8285 168.016 21.1164C167.858 21.7536 167.481 22.3135 166.953 22.6961C166.576 22.9787 166.145 23.1799 165.688 23.2871L167.335 26.511H165.093L163.711 23.4483L162.935 26.511H161.097L163.063 18.7522L165.901 18.7092ZM164.051 22.234H164.466C164.885 22.2583 165.3 22.1411 165.646 21.9009C165.887 21.7121 166.059 21.4474 166.134 21.1486C166.187 21.014 166.199 20.8665 166.169 20.7249C166.139 20.5833 166.067 20.454 165.964 20.3534C165.68 20.1694 165.345 20.0827 165.008 20.1062H164.583L164.051 22.234Z" fill="white"/>
        <path d="M166.857 28.8967C167.167 29.3091 167.375 29.7911 167.462 30.3018C167.549 30.8125 167.513 31.3369 167.357 31.8305C167.039 32.9948 166.343 34.0169 165.38 34.7319C164.413 35.4791 163.228 35.8798 162.011 35.871C161.487 35.9088 160.961 35.8259 160.473 35.6286C159.985 35.4313 159.548 35.1247 159.194 34.7319C158.891 34.3266 158.686 33.8544 158.598 33.3538C158.509 32.8533 158.539 32.3387 158.684 31.8519C159.021 30.685 159.713 29.6549 160.661 28.9075C161.641 28.1549 162.842 27.7541 164.073 27.7684C164.591 27.7287 165.112 27.8097 165.595 28.0053C166.077 28.201 166.509 28.5059 166.857 28.8967ZM161.681 30.0896C161.112 30.5239 160.707 31.142 160.534 31.8412C160.434 32.1343 160.408 32.4479 160.458 32.7537C160.508 33.0594 160.633 33.3478 160.821 33.5928C161.013 33.8124 161.254 33.9839 161.523 34.0939C161.792 34.2039 162.083 34.2494 162.372 34.2269C163.073 34.2311 163.754 33.9964 164.306 33.5606C164.871 33.133 165.272 32.5221 165.444 31.8305C165.537 31.5401 165.562 31.2318 165.518 30.9297C165.474 30.6277 165.361 30.3401 165.189 30.0896C164.988 29.8663 164.741 29.6908 164.465 29.5756C164.19 29.4604 163.892 29.4084 163.594 29.4233C162.902 29.4295 162.231 29.6633 161.681 30.0896Z" fill="white"/>
        <path fill-rule="evenodd" clip-rule="evenodd" d="M0 36L9.74573 0H62.6724L53.1073 36H17.3659H0Z" fill="white"/>
        <path fill-rule="evenodd" clip-rule="evenodd" d="M8.8105 31.3146C8.42399 31.3053 8.04376 31.2138 7.69457 31.046C7.24464 30.8391 6.89263 30.4624 6.71388 29.9965C6.53512 29.5306 6.5438 29.0124 6.73807 28.5528C6.8944 28.2377 7.07566 27.9358 7.28009 27.6501C8.34287 26.0704 9.32063 24.48 10.3515 22.911C10.6932 22.3197 11.2047 21.8474 11.8182 21.557C12.1651 21.4047 12.5406 21.3305 12.9187 21.3398C13.2968 21.3491 13.6683 21.4416 14.0075 21.6107C14.4212 21.8195 14.8099 22.0755 15.1659 22.3737C16.9302 23.7385 18.6944 25.1033 20.4799 26.4788C20.8238 26.7392 21.0962 27.0843 21.2711 27.4811C21.4459 27.878 21.5175 28.3135 21.4789 28.7463C21.4651 29.4258 21.1898 30.0731 20.7115 30.5506C20.2333 31.0282 19.5897 31.2984 18.9176 31.3039C17.8123 31.3361 10.4472 31.3254 8.8105 31.3146ZM15.3466 29.6919C15.5612 29.6714 15.7646 29.5854 15.9298 29.4453C16.0949 29.3052 16.214 29.1176 16.2712 28.9075C16.3208 28.7347 16.3212 28.5513 16.2723 28.3783C16.2234 28.2053 16.1273 28.0498 15.9949 27.9296L14.9321 26.8549L12.6259 24.609C12.5242 24.4842 12.3935 24.3869 12.2455 24.3258C12.0975 24.2646 11.9368 24.2415 11.7778 24.2586C11.6188 24.2756 11.4664 24.3322 11.3344 24.4234C11.2023 24.5145 11.0947 24.6374 11.0211 24.7809L9.51193 27.0806C9.24624 27.4782 8.98054 27.8758 8.7361 28.2949C8.63741 28.4425 8.58467 28.6165 8.58467 28.7946C8.58467 28.9727 8.63741 29.1468 8.7361 29.2943C8.83035 29.4405 8.96238 29.5579 9.11787 29.6337C9.27336 29.7094 9.44639 29.7407 9.61821 29.7242C10.5747 29.6919 14.8152 29.7027 15.3572 29.6919H15.3466Z" fill="#C70629"/>
        <path fill-rule="evenodd" clip-rule="evenodd" d="M26.2402 31.3146C25.7321 31.3021 25.2323 31.1812 24.7735 30.96C24.1938 30.6897 23.7398 30.2035 23.5061 29.6028C23.2724 29.0021 23.2772 28.3334 23.5194 27.7361C23.725 27.3234 23.9631 26.9281 24.2315 26.5541C25.5706 24.4836 26.9133 22.4132 28.2595 20.3427C28.7113 19.5734 29.3816 18.9594 30.1831 18.5803C30.6383 18.382 31.1306 18.286 31.626 18.299C32.1215 18.312 32.6082 18.4337 33.0526 18.6555C33.5949 18.9296 34.1047 19.2649 34.5724 19.655C36.8786 21.4388 39.1955 23.2227 41.4911 25.0281C41.9324 25.3643 42.2832 25.8071 42.5116 26.3158C42.74 26.8246 42.8386 27.3831 42.7983 27.9403C42.779 28.8298 42.4173 29.6767 41.7902 30.3008C41.163 30.9249 40.3199 31.277 39.4399 31.2824C38.0158 31.3469 28.3764 31.3254 26.2402 31.3146ZM34.8062 29.1654C35.0956 29.1419 35.3698 29.0246 35.588 28.831C35.8063 28.6374 35.957 28.3778 36.0178 28.0908C36.0853 27.8633 36.0871 27.6212 36.0231 27.3927C35.9591 27.1643 35.8319 26.959 35.6564 26.8012C35.1888 26.3176 34.6999 25.8555 34.2217 25.3935L31.2246 22.5672C31.0924 22.398 30.9199 22.2654 30.7234 22.1817C30.5268 22.098 30.3125 22.0659 30.1004 22.0884C29.8883 22.1109 29.6853 22.1873 29.5102 22.3105C29.3351 22.4337 29.1937 22.5996 29.0991 22.7929L27.1435 25.7911C26.8034 26.3176 26.4421 26.8657 26.0807 27.3708C25.9524 27.5627 25.8837 27.7892 25.8837 28.0209C25.8837 28.2527 25.9524 28.4791 26.0807 28.6711C26.2036 28.8611 26.3755 29.0135 26.5777 29.112C26.78 29.2105 27.005 29.2512 27.2286 29.2299C28.5358 29.1869 34.1048 29.2084 34.7956 29.1869L34.8062 29.1654Z" fill="#C70629"/>
        <path fill-rule="evenodd" clip-rule="evenodd" d="M17.8016 19.9451H14.2944C14.0976 19.9499 13.9011 19.9282 13.7099 19.8806C13.4203 19.8098 13.1533 19.6656 12.9341 19.4615C12.769 19.3167 12.6461 19.1291 12.5787 18.9189C12.5113 18.7087 12.5019 18.4839 12.5515 18.2687C12.5999 18.0483 12.7114 17.8473 12.872 17.6906C13.0327 17.5339 13.2354 17.4285 13.4548 17.3875C13.6568 17.3875 13.8693 17.323 14.0713 17.28L15.6017 17.0436L17.0789 16.8179L18.5562 16.5815L19.789 16.3881L20.4798 16.2806C20.6291 16.2596 20.7684 16.1927 20.8787 16.0889C20.989 15.985 21.0649 15.8494 21.0963 15.7003C21.1054 15.6254 21.1054 15.5496 21.0963 15.4746C21.0963 14.8728 21.0963 14.271 21.0963 13.68C21.0963 12.1899 21.0963 10.6997 21.0963 9.20956C21.0913 8.98265 21.1091 8.75581 21.1494 8.53254C21.1932 8.28037 21.2898 8.04058 21.4328 7.82928C21.5757 7.61798 21.7618 7.44006 21.9784 7.30747C22.1987 7.17496 22.4394 7.08053 22.6904 7.02806L29.2797 5.37314L32.1067 4.69612C32.3598 4.63012 32.6229 4.61191 32.8825 4.64239C33.2519 4.67272 33.5968 4.84133 33.8497 5.11523C34.0467 5.32124 34.1925 5.57172 34.2748 5.84597C34.3126 5.97156 34.3341 6.10162 34.3386 6.23284C34.3386 6.94926 34.3386 7.66567 34.3386 8.38209C34.3386 9.48538 34.3598 10.5922 34.4023 11.7027C34.399 11.7456 34.399 11.7887 34.4023 11.8316C34.4079 11.9354 34.4444 12.0351 34.507 12.1175C34.5696 12.2 34.6553 12.2614 34.753 12.2937C34.8733 12.337 34.9981 12.3658 35.125 12.3797H35.6139H36.9849L38.9617 12.4549L40.2264 12.5516L41.1935 12.6376L42.6283 12.7988C43.4466 12.9063 44.2543 13.0567 45.0514 13.2394C45.6124 13.3699 46.1659 13.5313 46.7094 13.723L47.8465 14.1099C49.1849 14.5872 50.4218 15.3165 51.4919 16.2591C51.8226 16.5452 52.1187 16.8698 52.374 17.2263C52.6291 17.5719 52.82 17.9615 52.9373 18.3761C53.0828 18.8595 53.0828 19.3757 52.9373 19.8591C52.7899 20.3439 52.6014 20.8149 52.374 21.2669C50.8436 24.2221 50.376 25.0603 48.8456 28.0155C48.7863 28.1314 48.7188 28.2427 48.6436 28.3487C48.498 28.5668 48.304 28.7474 48.077 28.8762C47.85 29.0049 47.5964 29.0782 47.3364 29.0902C47.0529 29.1136 46.7682 29.0615 46.5108 28.9389C46.2535 28.8163 46.0324 28.6276 45.8698 28.3916C45.7554 28.2141 45.681 28.0133 45.6516 27.8035C45.6222 27.5938 45.6386 27.38 45.6997 27.1773C45.7471 27.0129 45.8038 26.8515 45.8698 26.6937C46.6562 24.7487 47.347 22.9218 47.5383 22.3952C47.682 21.8678 47.7781 21.3283 47.8253 20.7833C47.8672 20.2309 47.7291 19.6799 47.4321 19.2143C47.2491 18.923 47.015 18.6681 46.7412 18.4621L46.433 18.2687C45.262 17.5193 43.9764 16.971 42.6283 16.646C41.8737 16.4633 41.1191 16.3128 40.3645 16.1946C39.9607 16.1302 39.5462 16.0872 39.1423 16.0334L38.0158 15.9045C37.5694 15.9045 37.123 15.8078 36.6873 15.7863L34.4873 15.6573H33.5521C33.2276 15.6382 32.9046 15.5987 32.585 15.5391C32.2351 15.4794 31.9107 15.3157 31.6533 15.0688C31.3958 14.8218 31.217 14.503 31.1396 14.1528C31.0963 13.9844 31.0749 13.811 31.0758 13.637C31.0758 12.9206 31.0758 12.1791 31.0758 11.4125C31.0758 10.714 31.0758 10.0263 31.0758 9.32776C31.0864 9.25292 31.0864 9.17693 31.0758 9.10209C31.0599 9.03944 31.0244 8.98365 30.9746 8.943C30.9248 8.90235 30.8634 8.879 30.7995 8.87642C30.7184 8.86467 30.6361 8.86467 30.555 8.87642L29.3541 9.16657L25.6875 10.0478L25.0923 10.1875C24.9831 10.206 24.8853 10.2669 24.8198 10.3572C24.7543 10.4475 24.7262 10.5601 24.7416 10.671C24.7416 11.3875 24.7416 12.1039 24.7416 12.8203C24.7416 14.554 24.7416 16.2878 24.7416 18.0215C24.7512 18.4299 24.6362 18.8314 24.4121 19.1713C24.2757 19.3826 24.0978 19.5632 23.8893 19.7018C23.6809 19.8405 23.4464 19.9343 23.2006 19.9773C22.9901 20.015 22.7766 20.033 22.5629 20.031L17.8016 19.9451Z" fill="#C70629"/>
    </g>
    <defs>
        <clipPath id="clip0">
            <rect width="173" height="36" fill="white"/>
        </clipPath>
    </defs>
</svg>