<svg width="154" height="154" viewBox="0 0 154 154" fill="none" xmlns="http://www.w3.org/2000/svg">
<path d="M7.33382 88.0008H14.6659V65.9993H21.9998V58.6672H0V73.3332H7.33382V80.667H0V95.3329H7.33382V88.0008Z" fill="black"/>
<path d="M14.6659 51.3333H51.3333V0H0V51.3333H14.6659ZM7.33382 7.33382H44.0012V44.0012H7.33382V7.33382Z" fill="black"/>
<path d="M29.3336 36.6675H36.6674V14.666H14.666V36.6675H29.3336Z" fill="black"/>
<path d="M21.9998 73.3333V88.0009H29.3336V95.333H36.6674V73.3333H21.9998Z" fill="black"/>
<path d="M21.9998 117.333H14.666V139.334H36.6674V117.333H21.9998Z" fill="black"/>
<path d="M36.6674 102.667H0V154H51.3333V102.667H36.6674ZM43.9995 146.666H7.33382V110.001H44.0012V146.666H43.9995Z" fill="black"/>
<path d="M51.3334 65.9992H65.9993V73.333H73.3331V65.9992H88.0008V58.6671H95.3329V29.3335H88.0008V51.3333H80.667V58.6671H73.3331V51.3333H65.9993V43.9994H58.6672V58.6671H29.3336V65.9992H36.6674V73.333H43.9996V65.9992H51.3334Z" fill="black"/>
<path d="M43.9995 73.3333V80.6671H51.3333V73.3333H43.9995Z" fill="black"/>
<path d="M65.9993 132H58.6672V154H73.3331V139.334H65.9993V132Z" fill="black"/>
<path d="M73.3331 36.6673H80.6669V29.3335H73.3331V36.6673Z" fill="black"/>
<path d="M80.6669 43.9995H73.3331V51.3333H80.6669V43.9995Z" fill="black"/>
<path d="M80.6669 139.334V132H73.3331V139.334H80.6669Z" fill="black"/>
<path d="M95.3329 21.9998V14.6659H88.0008V7.33382H95.3329V0H80.6669V7.33382H73.3331V0H65.9993V14.6659H58.6672V21.9998H65.9993V29.3336H73.3331V14.6659H80.6669V29.3336H88.0008V21.9998H95.3329Z" fill="black"/>
<path d="M88.0007 80.6671H95.3328V73.3333H88.0007V80.6671Z" fill="black"/>
<path d="M95.3328 88.0007H88.0007V95.3328H95.3328V88.0007Z" fill="black"/>
<path d="M88.0007 139.334H95.3328V132H88.0007V139.334Z" fill="black"/>
<path d="M88.0007 154H95.3328V146.666H88.0007V154Z" fill="black"/>
<path d="M102.667 65.9993V73.3332H110.001V58.6672H95.3329V65.9993H102.667Z" fill="black"/>
<path d="M110 80.6667H102.667V95.3327H110V80.6667Z" fill="black"/>
<path d="M102.667 154H110V139.334H102.667V154Z" fill="black"/>
<path d="M117.333 139.334H124.666V132H117.333V139.334Z" fill="black"/>
<path d="M117.333 154H124.666V146.666H117.333V154Z" fill="black"/>
<path d="M124.666 14.666H117.333V36.6675H139.334V14.666H124.666Z" fill="black"/>
<path d="M132 95.3328V88.0007H117.333V95.3328H132Z" fill="black"/>
<path d="M124.666 102.667V110.001H117.333V95.3347H109.999V102.667H102.667V95.333H95.3328V109.999H87.999V95.333H80.6652V80.6671H65.9993V73.3333H58.6654V80.6671H51.3333V88.0009H43.9995V95.3347H58.6654V88.0009H65.9993V95.3347H58.6654V124.668H65.9993V132.002H73.3331V117.336H65.9993V102.667H73.3331V110.001H80.6669V124.667H88.0007V117.333H95.3346V124.667H102.667V132H110V124.667H117.334V117.333H132V102.667H124.666ZM110 117.333H102.667V109.999H110V117.333Z" fill="black"/>
<path d="M132 58.6672V65.9993H139.334V58.6672H132Z" fill="black"/>
<path d="M139.334 117.333H132V132H146.666V124.667H139.334V117.333Z" fill="black"/>
<path d="M132 139.334V154H154V146.666H146.666V139.334H132Z" fill="black"/>
<path d="M139.334 65.9993V73.3331H117.333V80.6669H154V65.9993H139.334Z" fill="black"/>
<path d="M146.666 88.0007H139.334V110H146.666V124.666H154V95.3328H146.666V88.0007Z" fill="black"/>
<path d="M146.666 0H102.667V51.3333H154V0H146.666ZM146.666 43.9995H110V7.33382H146.668V43.9995H146.666Z" fill="black"/>
<path d="M154 139.334V132H146.666V139.334H154Z" fill="black"/>
</svg>
