<svg width="80" height="64" viewBox="0 0 80 64" fill="none" xmlns="http://www.w3.org/2000/svg">
<path d="M62.0118 44.0592C47.2426 40.2722 37.8698 45.6371 35.0295 48.793L54.4378 57.3136C55.9526 56.9349 64.2209 55.2623 68.1656 54.4734C64.7574 52.2012 62.643 46.5839 62.0118 44.0592Z" fill="#C70629"/>
<path d="M56.3313 63.4675L54.9112 58.2604L69.5858 55.4201C71.6546 56.9349 77.5484 59.8383 80 60.6272L56.3313 63.4675Z" fill="#C70629"/>
<path d="M54.9113 36.0119L52.071 33.1716L59.1716 35.0651L58.2249 36.4852V42.1657L54.9113 41.6923V36.0119Z" fill="#C70629"/>
<path d="M63.9053 35.5385L13.2544 18.0237V15.1835H15.1479L63.9053 30.8048V35.5385Z" fill="#C70629"/>
<path d="M64.852 30.3314V35.5385L75.7396 26.5444V24.1776H74.3195L64.852 30.3314Z" fill="#C70629"/>
<path d="M74.7928 0.0355225H72.426L63.9053 28.9113H65.7988L67.6923 27.9645L74.7928 0.0355225Z" fill="#C70629"/>
<path d="M72.8993 24.1776L69.5857 26.5444L72.4259 11.8699L74.7928 4.2959L72.8993 24.1776Z" fill="#C70629"/>
<path d="M25.0886 17.5504L70.5324 2.40247L70.059 4.29596L27.4555 18.4971L25.0886 17.5504Z" fill="#C70629"/>
<path d="M64.8519 22.7575L32.1892 19.4438L36.9229 21.3373L63.9052 25.5977L64.8519 22.7575Z" fill="#C70629"/>
<path d="M44.9704 36.0119C31.7159 32.6036 23.0374 37.432 20.355 40.2722L34.5562 46.8995C36.923 44.0593 42.9191 41.8502 46.3905 41.219L44.9704 36.0119Z" fill="#C70629"/>
<path d="M30.7692 29.3848C19.4083 25.2191 10.572 30.1737 7.57397 33.1717L19.8817 38.8522C22.2485 35.5386 28.5602 33.6451 31.716 33.1717L30.7692 29.3848Z" fill="#C70629"/>
<path d="M7.10059 31.7517L0 27.9647C5.68047 22.2843 15.9369 23.3887 20.355 24.651V27.0179C14.2012 26.5445 9.62525 29.8582 7.10059 31.7517Z" fill="#C70629"/>
<path d="M38.8167 53.5267V51.6332L42.6036 53.0533L38.8167 53.5267Z" fill="#C70629"/>
<path d="M24.6155 45.4793V43.5858L28.4025 45.0059L24.6155 45.4793Z" fill="#C70629"/>
<path d="M15.1479 39.7988V37.9053L18.9349 39.3254L15.1479 39.7988Z" fill="#C70629"/>
<path d="M6.6272 35.0651V33.1716L9.46743 34.5917L6.6272 35.0651Z" fill="#C70629"/>
<path d="M41.6568 34.1184L38.8166 33.645V30.3314L36.4497 27.0178L42.6036 28.9113L41.6568 30.3314V34.1184Z" fill="#C70629"/>
<path d="M28.4024 27.4912L25.5622 26.5444L25.0888 24.6509L23.6687 22.7574L28.8758 24.6509L28.4024 25.1243V27.4912Z" fill="#C70629"/>
<path d="M16.0947 21.8107L14.6745 19.9172L14.2012 19.4438L19.4083 20.864L18.9349 21.8107V23.7042L16.0947 23.2308V21.8107Z" fill="#C70629"/>
</svg>
