<svg width="125" height="49" viewBox="0 0 125 49" fill="none" xmlns="http://www.w3.org/2000/svg">
<path d="M99.7924 5.45249L87.4433 4.47852L82.5374 5.10831V6.71351H98.4166L99.7924 5.45249Z" fill="#C70629"/>
<path d="M96.455 7.40186H82.5374V24.4207H92.7004L96.455 7.40186ZM83.5188 23.4467V8.37583H92.1319L88.8076 23.4467H83.5188ZM89.5171 23.4467L92.84 8.37583H95.2347L91.9103 23.4467H89.5171Z" fill="#C70629"/>
<path d="M49.8436 40.5341L56.2361 36.3826L41.2305 33.0094V34.676L44.8887 40.5341H49.8436Z" fill="#C70629"/>
<path d="M3.27521 17.1545C3.47813 17.1688 3.66953 17.1817 3.85086 17.1988L6.56791 15.0566L69.3134 21.9287C69.3927 21.9373 69.4725 21.9416 69.5523 21.9416C70.0931 21.9382 70.6123 21.7302 71.0039 21.3601C71.3955 20.99 71.6301 20.4855 71.6599 19.9496C71.6896 19.4137 71.5122 18.8868 71.1639 18.4762C70.8156 18.0656 70.3226 17.8023 69.7854 17.7401L4.00197 10.5381H3.98614C3.09964 10.5381 1.17986 14.741 1.00573 16.292C0.992225 16.3543 0.992569 16.4187 1.00674 16.4809C1.0209 16.543 1.04855 16.6014 1.08776 16.6518C1.39573 17.0189 2.43909 17.0946 3.27521 17.1545Z" fill="#C70629"/>
<path d="M25.773 24.8349L27.6812 18.1057L10.3298 16.2048L6.92773 20.9933V27.8354L27.6366 29.5663L25.773 24.8349Z" fill="#C70629"/>
<path d="M31.5 9L81.9302 14.1651V4.7356H33.3269L32.4447 6.62785H25.76V8.17449H31.7223L31.5 9Z" fill="#C70629"/>
<path d="M69.5465 22.6741C69.4398 22.6741 69.3332 22.6684 69.2271 22.657L28.9935 18.137L27.1011 24.8063L28.982 29.5847L56.5571 36.0113L68.8385 28.0338C70.1899 27.1537 71.7711 26.6851 73.3875 26.6857H81.933V15.5121L30.9063 9.92249L29.6514 12.6131L69.8603 17.0174C70.5845 17.0999 71.2496 17.4539 71.7197 18.0068C72.1897 18.5598 72.4292 19.2701 72.3891 19.9924C72.3491 20.7148 72.0325 21.3946 71.5042 21.8931C70.9758 22.3916 70.2756 22.6709 69.5465 22.6741Z" fill="#C70629"/>
<path d="M18.9817 32.9966L20.1129 29.3678L8.14087 28.3667L12.3215 35.393L18.9817 32.9966Z" fill="#C70629"/>
<path d="M8.55242 38.5905L11.9502 35.6114L10.5715 33.2936L6.14478 34.6603L8.55242 38.5905Z" fill="#C70629"/>
<path d="M80.5831 29.9704C80.3529 29.8561 80.1173 29.7509 79.8765 29.6547V29.5262C79.865 28.9764 79.5513 28.5365 79.1771 28.5437L78.2719 28.5622C78.0229 28.5622 77.8128 28.7707 77.6963 29.0649C77.442 29.0278 77.1844 29.0007 76.9235 28.9835L76.8817 28.8636C76.699 28.3437 76.2643 28.0224 75.9103 28.1495L75.054 28.4466C74.8195 28.5265 74.6842 28.785 74.6698 29.0992C74.4122 29.1421 74.1575 29.1935 73.9085 29.2563L73.8322 29.1563C73.4969 28.7179 72.9831 28.5451 72.6809 28.7693L71.9614 29.3134C71.7628 29.4634 71.7138 29.7504 71.8002 30.056C71.5699 30.1751 71.3459 30.3026 71.1281 30.4388L71.0202 30.3645C70.5654 30.0503 70.0229 30.0432 69.8085 30.3488L69.2904 31.0871C69.1465 31.2914 69.1925 31.5798 69.3695 31.844C69.1882 32.0268 69.0155 32.2168 68.8486 32.4153L68.7234 32.3782C68.1923 32.2182 67.6742 32.3782 67.5721 32.7352L67.3087 33.5921C67.2382 33.8291 67.3692 34.0905 67.6181 34.2875C67.503 34.516 67.397 34.7498 67.3001 34.9887H67.1706C66.6165 35.0002 66.1733 35.3101 66.1804 35.6828L66.2006 36.5825C66.2006 36.8282 66.4093 37.0352 66.7072 37.1466C66.6683 37.398 66.6424 37.655 66.6251 37.9135L66.5028 37.9549C66.2634 38.0323 66.0526 38.1784 65.8969 38.3748V31.6216L51.0264 40.9283L51.0264 42.015H64L65.8912 39.5587V39.2488L66.0711 39.7601C66.1517 39.9943 66.4121 40.1285 66.7302 40.1428C66.7719 40.397 66.8252 40.6498 66.8871 40.8969L66.7863 40.974C66.3445 41.3067 66.1704 41.8166 66.3963 42.1165L66.9461 42.8305C67.09 43.0276 67.385 43.0762 67.693 42.9905C67.8124 43.219 67.9419 43.4403 68.0786 43.6574L68.0038 43.7645C67.6872 44.2158 67.68 44.7542 67.988 44.967L68.732 45.4797C68.9378 45.6225 69.2285 45.5782 69.4947 45.4026C69.6789 45.5825 69.8708 45.7548 70.0704 45.9195L70.033 46.0438C69.8718 46.5707 70.033 47.0834 70.3927 47.1863L71.2562 47.4462C71.4937 47.5176 71.7599 47.3905 71.9571 47.142C72.1873 47.2562 72.4224 47.361 72.6622 47.4562V47.5847C72.6737 48.1345 72.986 48.5744 73.3631 48.5658L74.2668 48.5473C74.5158 48.5473 74.7245 48.3402 74.8425 48.0446C75.0972 48.0831 75.3548 48.1088 75.6153 48.126L75.657 48.2474C75.8398 48.7658 76.2744 49.0885 76.6284 48.9614L77.4833 48.6672C77.7193 48.5858 77.8546 48.3288 77.8689 48.0131C78.1251 47.9717 78.3798 47.9189 78.6302 47.8575L78.7065 47.9574C79.0418 48.3959 79.5542 48.5673 79.8578 48.343L80.5774 47.8004C80.7774 47.6504 80.8249 47.3634 80.74 47.0577C80.9702 46.9392 81.1933 46.8121 81.4121 46.675L81.52 46.7493C81.9747 47.0634 82.5173 47.0706 82.7317 46.765L83.2484 46.0266C83.3923 45.8224 83.3477 45.5339 83.1707 45.2712C83.352 45.0869 83.5247 44.8984 83.6916 44.6999L83.8168 44.7385C84.3478 44.897 84.8645 44.7385 84.9681 44.38L85.23 43.5232C85.2496 43.451 85.2536 43.3754 85.2417 43.3016C85.2298 43.2278 85.2023 43.1573 85.161 43.0947H88.599V26.7285H91.1894C91.9003 26.7285 92.4846 26.0245 92.4846 25.1576V24.6364H82.5374V26.7285H83.1735V31.6398C83.1284 31.6619 83.0846 31.6867 83.0426 31.7141C82.8584 31.5341 82.6665 31.3618 82.4669 31.1971L82.5043 31.0714C82.6655 30.5459 82.5043 30.0318 82.1446 29.9289L81.2811 29.669C81.0393 29.5933 80.776 29.7219 80.5831 29.9704ZM76.2658 42.7163C75.4373 42.716 74.6275 42.4719 73.9387 42.015C73.25 41.558 72.7133 40.9086 72.3964 40.149C72.0796 39.3893 71.9968 38.5535 72.1586 37.7471C72.3204 36.9408 72.7195 36.2002 73.3055 35.6189C73.8914 35.0377 74.6379 34.6419 75.4505 34.4816C76.2631 34.3213 77.1053 34.4037 77.8707 34.7184C78.6361 35.0331 79.2903 35.5659 79.7506 36.2495C80.2108 36.9332 80.4565 37.7369 80.4565 38.559C80.4546 39.6613 80.0124 40.7178 79.2269 41.4971C78.4413 42.2763 77.3765 42.7148 76.2658 42.7163ZM87.9082 42.4149H85.1221C85.1638 42.3221 85.2041 42.2293 85.243 42.1293H85.3725C85.9251 42.1179 86.3684 41.8066 86.3597 41.4338L86.341 40.537C86.341 40.2899 86.1324 40.0828 85.8359 39.9657C85.8733 39.7129 85.8992 39.4573 85.9179 39.1988L86.0388 39.1574L86.082 39.1403H87.9082V42.4149ZM87.9082 38.4605H86.7713C86.7904 38.3742 86.7854 38.2843 86.7569 38.2006L86.4605 37.3523C86.3784 37.1195 86.118 36.9853 85.8014 36.971C85.7582 36.7153 85.7064 36.4626 85.6431 36.2141L85.7424 36.1384C86.0993 35.8713 86.2806 35.4886 86.2187 35.1944H87.9025L87.9082 38.4605ZM83.8657 27.2855H87.9082V30.5616H83.8657V27.2855ZM83.8657 31.24H87.9082V34.506H85.7639L85.5956 34.2847C85.4517 34.0876 85.1552 34.0391 84.8487 34.1247C84.7278 33.8962 84.5997 33.6735 84.4615 33.4578L84.5364 33.3507C84.853 32.8994 84.8602 32.361 84.5508 32.1482L83.8701 31.6784L83.8657 31.24Z" fill="#C70629"/>
<path d="M38.9538 38.302H42.9833L40.7958 34.7988V32.958L29.9262 30.5131L32.8332 34.8845L32.4763 35.0073C32.393 35.0469 32.3237 35.1104 32.2772 35.1896C32.2308 35.2688 32.2094 35.3601 32.2158 35.4515C32.0403 35.4815 31.8676 35.5172 31.6963 35.5586L31.6445 35.4915C31.4171 35.193 31.0689 35.0745 30.8645 35.2287L30.3723 35.5971C30.3051 35.6608 30.2588 35.7431 30.2393 35.8332C30.2198 35.9234 30.228 36.0173 30.263 36.1027C30.1066 36.1836 29.954 36.2707 29.8053 36.364L29.7319 36.3126C29.4225 36.0998 29.0527 36.0941 28.9073 36.3026L28.5562 36.8053C28.5117 36.8863 28.493 36.9788 28.5025 37.0706C28.512 37.1623 28.5493 37.2491 28.6094 37.3195C28.4856 37.4437 28.3676 37.5737 28.2539 37.7065L28.169 37.6822C27.8078 37.5722 27.4495 37.6822 27.3818 37.925L27.2034 38.5105C27.1869 38.6011 27.1981 38.6945 27.2355 38.7788C27.2729 38.863 27.3349 38.9342 27.4135 38.9832C27.3344 39.1389 27.2696 39.2974 27.1962 39.4602H27.1084C26.7314 39.4688 26.4291 39.6801 26.4349 39.9329L26.4479 40.5456C26.4604 40.6364 26.5 40.7215 26.5615 40.7899C26.623 40.8583 26.7037 40.907 26.7932 40.9297C26.7673 41.1011 26.7486 41.2753 26.7371 41.451L26.6536 41.4795C26.2982 41.6024 26.078 41.8966 26.1615 42.135L26.3629 42.7134C26.403 42.7963 26.4672 42.8654 26.5473 42.9118C26.6273 42.9581 26.7195 42.9795 26.812 42.9734C26.8407 43.1462 26.8767 43.319 26.9199 43.4875L26.8508 43.5389C26.55 43.766 26.4306 44.1101 26.586 44.3143L26.9587 44.8013C27.0229 44.8681 27.1057 44.9143 27.1965 44.9339C27.2873 44.9535 27.3819 44.9456 27.4682 44.9113C27.5488 45.0655 27.6366 45.2169 27.7301 45.364L27.6797 45.4368C27.4639 45.7439 27.4581 46.1109 27.6682 46.2552L28.1748 46.605C28.2568 46.6487 28.3501 46.667 28.4427 46.6576C28.5353 46.6482 28.6229 46.6115 28.6943 46.5522C28.8195 46.675 28.949 46.7921 29.0843 46.9035L29.0584 46.9892C28.949 47.3477 29.0584 47.6961 29.3031 47.7704L29.8931 47.946C29.9843 47.9632 30.0785 47.9526 30.1635 47.9156C30.2485 47.8787 30.3203 47.8171 30.3694 47.739C30.5263 47.8175 30.6875 47.8818 30.8501 47.9546V48.0417C30.8573 48.4145 31.0703 48.7144 31.3265 48.7087L31.941 48.6987C32.0324 48.686 32.1181 48.6467 32.187 48.5856C32.2559 48.5246 32.305 48.4447 32.3281 48.3559C32.5008 48.3816 32.6778 48.3988 32.8548 48.4116L32.8836 48.493C33.0073 48.8472 33.3024 49.0643 33.5441 48.9814L34.1198 48.7815C34.2032 48.742 34.2728 48.6785 34.3195 48.5993C34.3662 48.5201 34.3878 48.4289 34.3817 48.3373C34.5573 48.3074 34.73 48.2731 34.8998 48.2302L34.953 48.2988C35.1804 48.5973 35.5287 48.7144 35.733 48.5601L36.2238 48.1917C36.2909 48.128 36.3373 48.0458 36.357 47.9557C36.3768 47.8656 36.369 47.7718 36.3346 47.6861C36.4914 47.6062 36.644 47.519 36.7922 47.4262L36.8656 47.4762C37.175 47.689 37.5434 47.6947 37.6902 47.4862L38.0414 46.9835C38.0854 46.9024 38.1039 46.81 38.0944 46.7183C38.0849 46.6266 38.0479 46.5399 37.9881 46.4694C38.1119 46.3451 38.2299 46.2166 38.3436 46.0824L38.4285 46.1081C38.7897 46.2166 39.1481 46.1081 39.2157 45.8653L39.3941 45.2783C39.4107 45.1881 39.3997 45.095 39.3625 45.011C39.3253 44.927 39.2637 44.856 39.1855 44.807C39.2632 44.6514 39.3294 44.4914 39.4013 44.3286H39.4891C39.8662 44.3201 40.1684 44.1087 40.1626 43.8559L40.1497 43.2447C40.138 43.1537 40.0989 43.0684 40.0375 42.9999C39.9761 42.9314 39.8954 42.8828 39.8057 42.8605C39.8316 42.6877 39.8489 42.5135 39.8619 42.3378L39.9439 42.3093C40.2993 42.1865 40.5195 41.8923 40.4361 41.6523L40.2346 41.0811C40.1942 40.9984 40.1299 40.9296 40.05 40.8833C39.97 40.837 39.878 40.8154 39.7856 40.8212C39.7568 40.647 39.7208 40.4756 39.6777 40.3071L39.7467 40.2557C40.0475 40.03 40.1655 39.6844 40.0115 39.4802L39.6446 38.9875C39.5807 38.9208 39.4981 38.8747 39.4076 38.8551C39.317 38.8355 39.2226 38.8433 39.1365 38.8775C39.0545 38.7233 38.9667 38.5719 38.8732 38.4248L38.9236 38.352C38.9351 38.3348 38.9437 38.3177 38.9538 38.302ZM33.2995 44.7285C32.7356 44.7285 32.1843 44.5625 31.7155 44.2516C31.2466 43.9407 30.8812 43.4988 30.6655 42.9817C30.4497 42.4647 30.3934 41.8958 30.5035 41.347C30.6136 40.7981 30.8853 40.294 31.2841 39.8984C31.683 39.5028 32.1911 39.2335 32.7442 39.1245C33.2973 39.0155 33.8706 39.0717 34.3915 39.2861C34.9124 39.5004 35.3575 39.8633 35.6706 40.3287C35.9837 40.7941 36.1507 41.3412 36.1504 41.9008C36.1477 42.6497 35.8463 43.367 35.312 43.8959C34.7777 44.4247 34.0541 44.722 33.2995 44.7228V44.7285Z" fill="#C70629"/>
<path d="M34.2062 42.7948C34.1452 42.8545 34.1034 42.9308 34.0862 43.0141C34.069 43.0974 34.0771 43.1838 34.1096 43.2625C34.1421 43.3412 34.1974 43.4085 34.2686 43.4558C34.3397 43.5032 34.4235 43.5285 34.5091 43.5285C34.5948 43.5285 34.6785 43.5032 34.7497 43.4558C34.8208 43.4085 34.8761 43.3412 34.9086 43.2625C34.9411 43.1838 34.9493 43.0974 34.9321 43.0141C34.9149 42.9308 34.8731 42.8545 34.8121 42.7948C34.7313 42.7159 34.6225 42.6716 34.5091 42.6716C34.3958 42.6716 34.287 42.7159 34.2062 42.7948Z" fill="#C70629"/>
<path d="M31.787 42.7948C31.726 42.8545 31.6842 42.9308 31.667 43.0141C31.6498 43.0974 31.658 43.1838 31.6904 43.2625C31.7229 43.3412 31.7783 43.4085 31.8494 43.4558C31.9205 43.5032 32.0043 43.5285 32.0899 43.5285C32.1756 43.5285 32.2593 43.5032 32.3305 43.4558C32.4016 43.4085 32.457 43.3412 32.4894 43.2625C32.5219 43.1838 32.5301 43.0974 32.5129 43.0141C32.4957 42.9308 32.4539 42.8545 32.3929 42.7948C32.3121 42.7159 32.2033 42.6716 32.0899 42.6716C31.9766 42.6716 31.8678 42.7159 31.787 42.7948Z" fill="#C70629"/>
<path d="M34.8106 40.9939C34.8718 40.9343 34.9138 40.858 34.9312 40.7747C34.9485 40.6914 34.9405 40.6048 34.9081 40.526C34.8757 40.4472 34.8203 40.3798 34.7491 40.3323C34.678 40.2849 34.5941 40.2595 34.5084 40.2595C34.4226 40.2595 34.3388 40.2849 34.2676 40.3323C34.1965 40.3798 34.1411 40.4472 34.1087 40.526C34.0763 40.6048 34.0682 40.6914 34.0856 40.7747C34.103 40.858 34.1449 40.9343 34.2062 40.9939C34.2869 41.0724 34.3954 41.1164 34.5084 41.1164C34.6214 41.1164 34.7299 41.0724 34.8106 40.9939Z" fill="#C70629"/>
<path d="M32.3929 40.9939C32.4541 40.9343 32.4961 40.858 32.5135 40.7747C32.5308 40.6914 32.5228 40.6048 32.4904 40.526C32.4579 40.4472 32.4026 40.3798 32.3314 40.3323C32.2602 40.2849 32.1764 40.2595 32.0907 40.2595C32.0049 40.2595 31.9211 40.2849 31.8499 40.3323C31.7787 40.3798 31.7234 40.4472 31.691 40.526C31.6586 40.6048 31.6505 40.6914 31.6679 40.7747C31.6852 40.858 31.7272 40.9343 31.7885 40.9939C31.8692 41.0724 31.9777 41.1164 32.0907 41.1164C32.2037 41.1164 32.3122 41.0724 32.3929 40.9939Z" fill="#C70629"/>
<path d="M33.2995 41.1068C33.1424 41.1068 32.9888 41.153 32.8582 41.2397C32.7275 41.3263 32.6257 41.4494 32.5656 41.5935C32.5055 41.7375 32.4897 41.896 32.5204 42.0489C32.551 42.2018 32.6267 42.3423 32.7378 42.4526C32.8489 42.5628 32.9904 42.6379 33.1445 42.6683C33.2986 42.6987 33.4584 42.6831 33.6035 42.6234C33.7487 42.5638 33.8727 42.4627 33.96 42.3331C34.0473 42.2035 34.0939 42.051 34.0939 41.8951C34.0939 41.6861 34.0102 41.4855 33.8612 41.3377C33.7123 41.1899 33.5102 41.1068 33.2995 41.1068Z" fill="#C70629"/>
<path d="M74.0453 39.8829C73.9573 39.9702 73.8974 40.0814 73.8732 40.2024C73.8489 40.3235 73.8614 40.449 73.909 40.563C73.9565 40.677 74.0372 40.7745 74.1406 40.8431C74.244 40.9117 74.3656 40.9483 74.49 40.9483C74.6144 40.9483 74.7359 40.9117 74.8394 40.8431C74.9428 40.7745 75.0234 40.677 75.071 40.563C75.1186 40.449 75.1311 40.3235 75.1068 40.2024C75.0825 40.0814 75.0226 39.9702 74.9347 39.8829C74.8165 39.7662 74.6566 39.7007 74.49 39.7007C74.3233 39.7007 74.1634 39.7662 74.0453 39.8829Z" fill="#C70629"/>
<path d="M74.9344 37.2366C75.0219 37.1494 75.0814 37.0385 75.1054 36.9178C75.1293 36.7971 75.1167 36.672 75.0692 36.5584C75.0216 36.4448 74.9412 36.3477 74.8381 36.2794C74.7349 36.2111 74.6137 36.1747 74.4898 36.1747C74.3658 36.1747 74.2446 36.2111 74.1415 36.2794C74.0383 36.3477 73.9579 36.4448 73.9103 36.5584C73.8628 36.672 73.8502 36.7971 73.8742 36.9178C73.8981 37.0385 73.9576 37.1494 74.0451 37.2366C74.1033 37.2949 74.1725 37.3412 74.2489 37.3728C74.3252 37.4043 74.4071 37.4206 74.4898 37.4206C74.5725 37.4206 74.6543 37.4043 74.7306 37.3728C74.807 37.3412 74.8762 37.2949 74.9344 37.2366Z" fill="#C70629"/>
<path d="M77.6012 36.3555C77.5135 36.4426 77.4539 36.5536 77.4297 36.6744C77.4056 36.7951 77.418 36.9203 77.4656 37.034C77.5131 37.1477 77.5935 37.2449 77.6967 37.3133C77.7998 37.3817 77.9211 37.4182 78.0452 37.4182C78.1692 37.4182 78.2905 37.3817 78.3937 37.3133C78.4968 37.2449 78.5773 37.1477 78.6248 37.034C78.6723 36.9203 78.6848 36.7951 78.6606 36.6744C78.6365 36.5536 78.5768 36.4426 78.4891 36.3555C78.3713 36.2389 78.2116 36.1735 78.0452 36.1735C77.8787 36.1735 77.7191 36.2389 77.6012 36.3555Z" fill="#C70629"/>
<path d="M77.6012 39.8829C77.5135 39.97 77.4539 40.0809 77.4297 40.2017C77.4056 40.3225 77.418 40.4476 77.4656 40.5613C77.5131 40.6751 77.5935 40.7723 77.6967 40.8406C77.7998 40.909 77.9211 40.9455 78.0452 40.9455C78.1692 40.9455 78.2905 40.909 78.3937 40.8406C78.4968 40.7723 78.5773 40.6751 78.6248 40.5613C78.6723 40.4476 78.6848 40.3225 78.6606 40.2017C78.6365 40.0809 78.5768 39.97 78.4891 39.8829C78.3713 39.7663 78.2116 39.7008 78.0452 39.7008C77.8787 39.7008 77.7191 39.7663 77.6012 39.8829Z" fill="#C70629"/>
<path d="M76.2658 37.4009C76.0349 37.4009 75.8093 37.4688 75.6173 37.5961C75.4254 37.7233 75.2758 37.9042 75.1875 38.1159C75.0991 38.3275 75.076 38.5604 75.1211 38.785C75.1661 39.0097 75.2773 39.2161 75.4405 39.3781C75.6037 39.54 75.8117 39.6503 76.0381 39.695C76.2645 39.7397 76.4991 39.7168 76.7124 39.6291C76.9257 39.5415 77.1079 39.393 77.2362 39.2025C77.3644 39.0121 77.4329 38.7881 77.4329 38.5591C77.4331 38.4069 77.403 38.2562 77.3444 38.1156C77.2858 37.975 77.1999 37.8473 77.0915 37.7397C76.983 37.6321 76.8543 37.5468 76.7126 37.4887C76.5709 37.4305 76.4191 37.4007 76.2658 37.4009Z" fill="#C70629"/>
<path d="M95.9471 32.4725C95.9089 32.5896 95.9089 32.7158 95.9472 32.833C95.9854 32.9501 96.0599 33.0524 96.1601 33.1251L99.3261 35.4329L101.493 34.5475L96.7803 32.1326C96.7042 32.0934 96.6204 32.0711 96.5347 32.0673C96.449 32.0636 96.3636 32.0784 96.2843 32.1107C96.2049 32.1431 96.1337 32.1922 96.0755 32.2547C96.0172 32.3172 95.9734 32.3915 95.9471 32.4725Z" fill="#C70629"/>
<path d="M106.786 39.6587L106.441 37.0867L103.508 35.5829L100.958 36.624L102.458 37.7179L106.786 39.6587Z" fill="#C70629"/>
<path d="M114.258 37.2252C114.571 37.2252 114.877 37.1331 115.138 36.9605C115.398 36.7879 115.601 36.5425 115.721 36.2555C115.841 35.9684 115.872 35.6526 115.811 35.3478C115.75 35.0431 115.599 34.7632 115.378 34.5435C115.156 34.3238 114.874 34.1742 114.567 34.1136C114.26 34.0529 113.942 34.0841 113.653 34.203C113.363 34.3219 113.116 34.5232 112.942 34.7815C112.768 35.0399 112.675 35.3436 112.675 35.6543C112.675 36.0709 112.842 36.4705 113.139 36.7651C113.436 37.0597 113.838 37.2252 114.258 37.2252Z" fill="#C70629"/>
<path d="M113.081 33.9219C113.428 33.6863 113.838 33.5603 114.259 33.5606C114.675 33.5603 115.082 33.6825 115.428 33.9118C115.774 34.141 116.044 34.467 116.203 34.8485C116.363 35.23 116.405 35.6499 116.324 36.055C116.243 36.4601 116.042 36.8322 115.748 37.1244C115.454 37.4165 115.079 37.6155 114.671 37.6962C114.263 37.7769 113.84 37.7356 113.455 37.5776C113.071 37.4196 112.742 37.152 112.511 36.8086C112.279 36.4652 112.156 36.0615 112.156 35.6485C112.156 35.5885 112.156 35.53 112.165 35.4714L109.671 34.9102C109.046 34.7717 108.409 34.6951 107.77 34.6817V39.1374L114.259 42.8505L120.747 39.1374V31.7041L114.259 27.991L107.77 31.7041V32.9622C108.538 32.9767 109.303 33.0686 110.053 33.2364L113.081 33.9219Z" fill="#C70629"/>
<path d="M99.1478 40.1658C99.5105 39.5323 99.6053 38.7818 99.4113 38.0791C99.2174 37.3763 98.7505 36.7786 98.113 36.417L89.2351 31.4086V37.7365L95.3729 41.1997C96.0118 41.5586 96.7681 41.6513 97.4758 41.4575C98.1835 41.2636 98.7848 40.7991 99.1478 40.1658Z" fill="#C70629"/>
<path d="M122.017 46.1881L117.235 46.0053L115.067 44.5572L114.923 44.4658L114.707 44.4572L114.448 44.4472L115.168 43.7003L102.367 37.9622L99.7492 37.5066C99.8098 37.6461 99.8617 37.7892 99.9047 37.935C100.039 38.4203 100.059 38.9298 99.9625 39.4239C99.8659 39.918 99.6556 40.3833 99.3481 40.7835C99.0405 41.1836 98.644 41.5079 98.1893 41.731C97.7347 41.954 97.2343 42.0699 96.7271 42.0694C96.5856 42.069 96.4443 42.0599 96.304 42.0423L96.0881 43.4704L102.504 46.5137H112.434L113.073 45.8568L114.53 45.8011L116.737 47.0378L116.896 47.1278H117.04L123.469 46.8764L124.996 46.8179L123.603 46.2709L116.983 43.6789L122.017 46.1881Z" fill="#C70629"/>
<path d="M99.2916 36.7453L103.776 34.9131C105.675 34.1339 107.771 33.9592 109.774 34.4132L112.261 34.9716C112.34 34.7446 112.459 34.533 112.611 34.3461L109.927 33.742C109.151 33.568 108.358 33.4799 107.562 33.4792C106.174 33.4789 104.799 33.7491 103.515 34.2747L98.7534 36.2198C98.9525 36.374 99.1331 36.5503 99.2916 36.7453Z" fill="#C70629"/>
<path d="M54.0085 0L45.3464 3.89732H62.6705L54.0085 0Z" fill="#C70629"/>
<path d="M16.9914 11.2263L19.0695 11.4548V10.6108H19.5905V7.40186H16.4719V10.6108H16.9914V11.2263Z" fill="#C70629"/>
</svg>
