<svg width="112" height="62" viewBox="0 0 112 62" fill="none" xmlns="http://www.w3.org/2000/svg">
<path fill-rule="evenodd" clip-rule="evenodd" d="M52.2892 27.4727C55.6307 27.4737 58.8977 28.4603 61.6811 30.3091C64.4645 32.1579 66.6407 34.7867 67.9373 37.8664C69.2339 40.946 69.5932 44.3397 68.9702 47.6226C68.3472 50.9055 66.7697 53.9317 64.4351 56.3224C62.1005 58.713 59.1126 60.3618 55.8454 61.0625C52.5782 61.7631 49.1769 61.4844 46.0673 60.2612C42.9578 59.038 40.2781 56.9248 38.3639 54.1859C36.4496 51.4471 35.3858 48.2045 35.3056 44.864C33.0298 44.864 30.5909 44.864 28.0638 44.9115C28.0132 45.8826 28.121 46.8555 28.3831 47.792C28.9945 49.7077 31.7798 50.8694 32.3165 50.6044L34.8912 52.4251L28.9129 51.6303C28.0552 51.3037 27.282 50.7882 26.6507 50.1221C25.8591 49.2836 25.2015 48.3281 24.701 47.2892L24.5991 44.9659L20.2309 45.0202C20.1728 46.358 20.3357 47.6961 20.7132 48.9808C21.3926 51.1955 24.6602 52.5338 25.2513 52.2281L28.2268 54.3273L21.2567 53.3694C19.2187 52.7783 17.2486 50.2104 16.3926 48.3558L16.2839 45.0474L11.1616 45.1017C11.0232 46.6538 11.1753 48.2181 11.61 49.7145C12.3437 52.0175 15.5162 53.4237 16.1345 53.1112L19.2323 55.3055L11.9837 54.3069C9.87768 53.6887 7.83965 51.114 7.12633 49.0895L7.01764 45.1357H1.52853C-0.509509 45.1357 -0.509509 41.4672 1.52853 41.4537L13.7975 41.345C14.0081 40.7607 14.572 39.7825 15.2309 39.7825H35.9849C36.9991 36.2395 39.1382 33.1226 42.0793 30.902C45.0204 28.6815 48.604 27.4778 52.2892 27.4727ZM41.6167 7.17389V9.89127H43.7634L41.8273 25.2309C37.167 28.417 33.4985 33.4374 30.754 38.0433H35.1222C36.3722 34.0488 42.133 28.2472 44.8164 27.0379C50.4686 25.7268 55.1968 25.9102 60.7063 26.8341C63.3517 29.2834 65.6858 32.0487 67.656 35.0678C69.5108 37.9871 70.487 41.3782 70.4685 44.8368L85.9847 44.8776C85.5302 46.136 85.167 47.4256 84.8978 48.7362H86.4535L86.5146 48.5392C87.0927 46.3684 87.9634 44.2864 89.103 42.3504C90.3056 40.539 91.9584 39.0712 93.8991 38.0909C96.7943 36.8946 99.9228 36.3697 103.05 36.5556C104.184 36.5556 104.884 35.1969 102.663 34.9999C102.384 34.9999 102.106 34.9659 101.82 34.9591L100.699 26.807C97.4521 26.0937 92.5472 24.9252 88.9739 24.3885V13.3423L87.7171 11.7527V4.75542C87.706 4.19387 87.8344 3.63834 88.0907 3.13858L89.7415 0.0407607L88.4644 0L86.9358 2.55434C86.5112 3.21156 86.2761 3.9732 86.2565 4.75542V11.7663L85.0065 13.3423V23.8382C81.2837 23.3627 78.9875 23.5121 75.2919 23.1589L76.1954 31.9292H74.8367L72.9889 9.8641H74.3951V7.41166H74.3544V7.08557L71.3109 4.64672H44.1371L41.5827 7.17389H41.6167ZM70.4821 9.89127H60.2919L60.3938 24.1236C60.9916 24.1847 61.5691 24.2594 62.1737 24.3477L66.9291 30.8762H68.3489L64.0147 24.9252H71.7525L70.4753 9.91165L70.4821 9.89127ZM57.887 9.89127V23.8994C53.3986 23.5205 48.8811 23.6755 44.4292 24.3613V24.0556L46.1751 9.89127H57.887ZM99.7755 46.8748C100.325 46.8735 100.863 47.0353 101.321 47.3398C101.779 47.6443 102.136 48.0778 102.347 48.5853C102.559 49.0929 102.615 49.6518 102.508 50.1912C102.402 50.7307 102.138 51.2264 101.749 51.6157C101.361 52.0049 100.866 52.2702 100.327 52.378C99.7877 52.4857 99.2286 52.4311 98.7205 52.221C98.2124 52.0109 97.7781 51.6548 97.4725 51.1977C97.1669 50.7407 97.0037 50.2032 97.0037 49.6534C97.0037 48.9176 97.2955 48.2119 97.8151 47.691C98.3347 47.1702 99.0397 46.8766 99.7755 46.8748ZM52.2892 40.3735C51.483 40.3735 50.695 40.6126 50.0247 41.0604C49.3544 41.5083 48.8319 42.1449 48.5234 42.8897C48.2149 43.6345 48.1342 44.4541 48.2915 45.2448C48.4487 46.0355 48.837 46.7617 49.407 47.3318C49.9771 47.9018 50.7033 48.29 51.494 48.4473C52.2847 48.6046 53.1043 48.5239 53.8491 48.2154C54.5939 47.9069 55.2305 47.3844 55.6783 46.7141C56.1262 46.0438 56.3653 45.2557 56.3653 44.4496C56.3653 43.3685 55.9358 42.3318 55.1714 41.5674C54.407 40.8029 53.3703 40.3735 52.2892 40.3735ZM84.0962 39.2254V40.5162H71.1886L70.6315 39.2254H84.0962ZM79.3408 31.7526L79.7144 30.4483L93.9127 30.5366L94.0554 31.7526H79.3408ZM94.3271 34.1439V35.7336H78.2334L78.6818 34.1439H94.3271ZM99.7619 37.9822C102.076 37.9822 104.337 38.6683 106.261 39.9537C108.185 41.2392 109.684 43.0662 110.57 45.2038C111.455 47.3414 111.687 49.6935 111.235 51.9628C110.784 54.232 109.67 56.3165 108.034 57.9525C106.398 59.5885 104.313 60.7027 102.044 61.1541C99.7749 61.6055 97.4227 61.3738 95.2851 60.4884C93.1475 59.603 91.3205 58.1036 90.0351 56.1798C88.7496 54.256 88.0636 51.9942 88.0636 49.6805C88.0644 48.1434 88.3681 46.6215 88.9572 45.2017C89.5462 43.7819 90.4091 42.492 91.4967 41.4058C92.5843 40.3195 93.8751 39.458 95.2956 38.8706C96.7161 38.2832 98.2383 37.9813 99.7755 37.9822H99.7619ZM99.7619 43.7091C100.943 43.7091 102.097 44.0593 103.079 44.7155C104.061 45.3716 104.827 46.3042 105.279 47.3954C105.731 48.4865 105.849 49.6872 105.619 50.8455C105.388 52.0038 104.819 53.0679 103.984 53.903C103.149 54.7381 102.085 55.3068 100.927 55.5372C99.7685 55.7677 98.5678 55.6494 97.4767 55.1974C96.3856 54.7455 95.4529 53.9801 94.7968 52.9981C94.1406 52.0161 93.7904 50.8616 93.7904 49.6805C93.7904 48.0968 94.4196 46.5779 95.5394 45.4581C96.6593 44.3382 98.1782 43.7091 99.7619 43.7091ZM52.2892 35.0203C50.4292 35.0243 48.6121 35.5795 47.0675 36.6158C45.5229 37.6522 44.3201 39.123 43.611 40.8426C42.902 42.5623 42.7186 44.4534 43.0839 46.2772C43.4493 48.1011 44.347 49.7757 45.6637 51.0895C46.9803 52.4033 48.6569 53.2974 50.4815 53.6588C52.3061 54.0202 54.1969 53.8327 55.9149 53.1199C57.633 52.4072 59.1013 51.2012 60.1342 49.6544C61.1672 48.1075 61.7185 46.2892 61.7185 44.4292C61.7185 43.1919 61.4745 41.9667 61.0004 40.8238C60.5263 39.681 59.8314 38.6428 58.9555 37.7689C58.0797 36.8949 57.04 36.2023 55.8961 35.7306C54.7522 35.259 53.5265 35.0176 52.2892 35.0203Z" fill="#C70629"/>
</svg>
