<svg width="71" height="71" viewBox="0 0 71 71" fill="none" xmlns="http://www.w3.org/2000/svg">
<path d="M57.4956 66.8493L57.8827 66.8361L57.8899 66.8385C60.9162 67.0082 63.7561 65.8505 65.3344 63.4466C66.9055 61.038 66.8279 57.9722 65.4599 55.2672L65.4551 55.2625L65.3117 54.9028C65.289 54.8013 65.3046 54.726 65.3464 54.6257C65.4001 54.4918 65.5184 54.4166 65.6534 54.3664L67.1182 53.8228C67.3536 53.7356 67.6021 53.8084 67.7263 54.0163L67.9032 54.4476L67.8936 54.4548C69.4802 57.8647 69.4468 61.7393 67.4348 64.823V64.8242C65.4145 67.9031 61.878 69.4861 58.1181 69.3965V69.4061L57.6509 69.4168C57.4108 69.387 57.2447 69.1874 57.2303 68.9365L57.1419 67.3774C57.1336 67.234 57.1563 67.0954 57.2566 66.9927C57.3319 66.9138 57.3928 66.8696 57.4956 66.8493Z" fill="#C70629"/>
<path d="M56.9281 62.1671L57.2555 62.1564C57.2686 62.154 57.2841 62.1528 57.3009 62.1552C58.7967 62.295 60.2041 61.7538 60.9676 60.5913C61.7263 59.4264 61.6582 57.9198 60.9317 56.6055C60.9234 56.5912 60.9186 56.5768 60.915 56.5637L60.7931 56.2602C60.7716 56.1623 60.786 56.0906 60.8266 55.9938C60.8792 55.866 60.9915 55.7931 61.1217 55.7453L62.5303 55.2232C62.7561 55.1384 62.9963 55.21 63.1158 55.4096L63.2866 55.8253C64.2221 57.823 64.2006 60.1074 63.0118 61.9294V61.9306C61.8182 63.7502 59.7346 64.6845 57.5279 64.6272L57.0786 64.6379C56.848 64.6092 56.6867 64.4169 56.6736 64.1767L56.5888 62.6761C56.5804 62.5387 56.6019 62.4049 56.6987 62.3057C56.7704 62.2293 56.8289 62.1851 56.9281 62.1671Z" fill="#C70629"/>
<path d="M1.08728 56.0248L17.1449 39.9289C17.8486 39.2228 18.7901 38.8333 19.7937 38.8333C20.7925 38.8333 21.7304 39.2204 22.4341 39.9218L25.433 42.9122L27.9981 40.3483L23.286 35.6481C22.194 34.5585 22.1916 32.7735 23.2812 31.6803L31.6421 23.299C32.7318 22.207 34.5168 22.2046 35.61 23.2942L47.6962 35.353C48.7882 36.4426 48.7906 38.2276 47.701 39.3208L45.7858 41.2408C45.996 41.101 46.1944 40.9504 46.4118 40.8166C47.6484 39.9504 48.5958 39.5645 49.6867 39.1177C53.4322 37.6135 57.1109 37.9564 59.2221 40.1595L59.4992 40.457C61.4061 42.4463 59.0799 47.8227 54.2733 52.8813L56.1718 55.3892C57.1456 55.1108 58.234 55.3533 58.9843 56.1359C60.062 57.2602 60.0237 59.0451 58.8995 60.1228C57.7752 61.2005 55.9902 61.1622 54.9125 60.038C54.1598 59.253 53.9639 58.1491 54.2889 57.1849L51.8719 55.1872C46.5839 59.8337 41.0581 61.9699 39.1393 59.9687C38.7677 59.5804 38.6853 59.48 38.3519 58.989C36.3603 56.0714 37.4391 51.2326 40.2277 46.8096L39.3376 47.702C38.248 48.7941 36.463 48.7965 35.3698 47.7068L29.3351 41.6876L30.6433 42.9923L28.0806 45.5551L31.0531 48.5205C31.758 49.2242 32.1475 50.1621 32.1487 51.1645C32.1499 52.1657 31.7628 53.1048 31.0591 53.8097L15.0039 69.9055C14.299 70.6128 13.3587 70.9999 12.3551 70.9999C11.3551 70.9999 10.4172 70.614 9.71347 69.9115L1.09564 61.314C0.389538 60.6103 0.00123978 59.6724 4.57764e-05 58.67C-0.00234222 57.67 0.384762 56.7297 1.08728 56.0248ZM40.7916 58.3868C41.941 59.5864 46.0128 57.5839 50.2625 53.8575L47.4859 51.5635C47.0104 51.0665 47.3748 49.9458 48.2995 49.0581L48.3019 49.0557C49.2279 48.1692 50.3641 47.8526 50.8396 48.3484L53.0105 51.2147C56.8588 47.1596 58.9879 43.2289 57.8481 42.0377C56.5757 40.7115 51.7273 43.2958 47.0164 47.8096C42.3078 52.3246 39.5204 57.0606 40.7916 58.3868ZM9.78635 49.953L6.09812 53.6496L17.3516 64.903L21.0386 61.2065L9.78635 49.953ZM22.3612 59.8815L26.0483 56.1849L14.796 44.9314L11.1078 48.628L22.3612 59.8815ZM30.2789 51.1657C30.2777 50.6639 30.0842 50.1955 29.7329 49.8443L21.1139 41.2467C20.7626 40.8967 20.2943 40.7043 19.7937 40.7043C19.2907 40.7043 18.8211 40.8979 18.4699 41.2503L16.1174 43.6088L27.3697 54.8623L29.7365 52.4895C30.0854 52.137 30.2789 51.6675 30.2789 51.1657ZM2.41586 59.9902L11.0337 68.5877C11.7362 69.2878 12.9776 69.2866 13.6789 68.5853L16.0314 66.2268L4.77791 54.9734L2.41108 57.345C2.05982 57.6962 1.86746 58.167 1.86866 58.6688C1.86985 59.1706 2.0646 59.6389 2.41586 59.9902Z" fill="#C70629"/>
<path d="M51.1681 32.1487C50.1645 32.1487 49.2242 31.7592 48.5193 31.0531L45.5539 28.0805L42.9912 30.6433L40.346 27.9981L42.9123 25.4317L39.9206 22.4329C39.2169 21.728 38.8298 20.7877 38.8322 19.7865C38.8334 18.7853 39.2217 17.8462 39.9278 17.1425L56.0236 1.08843C56.7274 0.385908 57.6652 0 58.6653 0C59.6689 0 60.6091 0.389492 61.314 1.0956L69.9116 9.71342C70.6153 10.4183 71.0024 11.3586 71 12.3598C70.9988 13.361 70.6105 14.3001 69.9044 15.0038L53.8097 31.0603C53.106 31.7616 52.1681 32.1487 51.1681 32.1487ZM40.7032 19.7912C40.702 20.293 40.8955 20.7626 41.2456 21.115L49.8431 29.7329C50.5445 30.4366 51.7846 30.4366 52.4883 29.7365L54.8611 27.3696L43.6077 16.1174L41.2492 18.4698C40.8979 18.8199 40.7032 19.2894 40.7032 19.7912ZM48.6293 11.1077L44.9327 14.7959L56.1861 26.0482L59.8827 22.36L48.6293 11.1077ZM61.2053 21.0398L64.9019 17.3515L53.6484 6.09926L49.9519 9.7875L61.2053 21.0398ZM69.1302 12.3574C69.1302 11.8556 68.9378 11.3861 68.5878 11.0336L59.9902 2.41581C59.639 2.06336 59.1683 1.8698 58.6653 1.8698C58.1647 1.8698 57.6963 2.06216 57.345 2.41223L54.9734 4.77905L66.2269 16.0313L68.5854 13.6788C68.9354 13.3288 69.1302 12.8592 69.1302 12.3574Z" fill="#C70629"/>
</svg>
