<svg width="99" height="59" viewBox="0 0 99 59" fill="none" xmlns="http://www.w3.org/2000/svg">
<path fill-rule="evenodd" clip-rule="evenodd" d="M87.8404 25.6914L82.8636 23.8196L88.435 35.1752L87.8404 25.6914ZM46.8442 26.7631V33.0759H43.6511C41.449 25.3024 35.8263 20.6853 29.2859 19.5255L29.6823 5.13829H43.174L45.956 19.0851L44.8696 20.4944L43.218 18.9896L43.842 14.6808L43.0639 14.211L37.331 21.1257L38.1532 21.8597L42.2858 20.0246L44.0916 21.5955L42.9391 22.9461L46.8442 26.7925V26.7631ZM77.8795 41.444C78.6942 41.4425 79.4911 41.6828 80.1693 42.1344C80.8474 42.586 81.3764 43.2286 81.6892 43.981C82.002 44.7333 82.0846 45.5615 81.9265 46.3608C81.7685 47.1601 81.3769 47.8945 80.8012 48.4712C80.2256 49.0478 79.4919 49.4407 78.6929 49.6002C77.8939 49.7597 77.0655 49.6786 76.3126 49.3671C75.5597 49.0557 74.9162 48.5279 74.4633 47.8505C74.0105 47.1732 73.7688 46.3767 73.7688 45.5619C73.7688 44.471 74.2017 43.4247 74.9724 42.6527C75.743 41.8806 76.7886 41.4459 77.8795 41.444ZM22.129 35.4615C23.1453 35.4615 24.1387 35.7629 24.9837 36.3275C25.8287 36.8921 26.4873 37.6946 26.8762 38.6335C27.2651 39.5724 27.3669 40.6055 27.1686 41.6022C26.9703 42.599 26.481 43.5145 25.7624 44.2331C25.0438 44.9517 24.1282 45.4411 23.1315 45.6394C22.1347 45.8376 21.1016 45.7359 20.1627 45.347C19.2238 44.9581 18.4213 44.2995 17.8567 43.4545C17.2921 42.6095 16.9908 41.6161 16.9908 40.5998C16.9908 39.2371 17.5321 37.9301 18.4957 36.9665C19.4593 36.0029 20.7663 35.4615 22.129 35.4615ZM22.129 31.6225C20.3546 31.6225 18.6201 32.1488 17.1448 33.1347C15.6696 34.1207 14.5199 35.522 13.8412 37.1615C13.1625 38.801 12.9853 40.6049 13.332 42.3451C13.6787 44.0853 14.5337 45.6836 15.7889 46.9378C17.0441 48.192 18.6431 49.0457 20.3836 49.391C22.1241 49.7363 23.9279 49.5576 25.5668 48.8775C27.2057 48.1975 28.6061 47.0467 29.5909 45.5706C30.5756 44.0945 31.1005 42.3595 31.099 40.5851C31.099 39.4075 30.867 38.2415 30.4161 37.1536C29.9652 36.0657 29.3044 35.0773 28.4713 34.245C27.6383 33.4126 26.6494 32.7526 25.5612 32.3026C24.4729 31.8526 23.3067 31.6215 22.129 31.6225ZM22.129 23.1737C18.6836 23.1737 15.3156 24.1955 12.4509 26.1098C9.58625 28.0241 7.35365 30.745 6.03548 33.9283C4.7173 37.1116 4.37278 40.6143 5.04549 43.9934C5.71819 47.3725 7.3779 50.4762 9.81469 52.912C12.2515 55.3478 15.3559 57.0062 18.7353 57.6775C22.1147 58.3487 25.6173 58.0027 28.8 56.6832C31.9828 55.3637 34.7027 53.13 36.6158 50.2645C38.5289 47.399 39.5493 44.0306 39.5478 40.5851C39.5478 38.298 39.0972 36.0333 38.2218 33.9204C37.3463 31.8074 36.0631 29.8877 34.4455 28.2708C32.828 26.6539 30.9077 25.3715 28.7944 24.4969C26.6811 23.6224 24.4162 23.1727 22.129 23.1737ZM77.9162 38.5225C76.5253 38.5225 75.1658 38.9349 74.0093 39.7076C72.8529 40.4803 71.9516 41.5786 71.4193 42.8635C70.8871 44.1485 70.7478 45.5624 71.0192 46.9265C71.2905 48.2906 71.9603 49.5436 72.9437 50.527C73.9272 51.5105 75.1802 52.1802 76.5443 52.4516C77.9084 52.7229 79.3223 52.5837 80.6072 52.0514C81.8922 51.5192 82.9905 50.6178 83.7632 49.4614C84.5359 48.305 84.9483 46.9454 84.9483 45.5546C84.9492 44.6308 84.768 43.716 84.415 42.8624C84.0619 42.0088 83.544 41.2332 82.8908 40.58C82.2376 39.9268 81.462 39.4089 80.6084 39.0558C79.7548 38.7027 78.8399 38.5215 77.9162 38.5225ZM77.9162 33.2007C80.358 33.2079 82.7428 33.9386 84.7696 35.3005C86.7963 36.6624 88.3741 38.5943 89.3035 40.8523C90.2329 43.1103 90.4723 45.5931 89.9915 47.9871C89.5107 50.3811 88.3312 52.579 86.602 54.303C84.8728 56.0271 82.6715 57.2 80.2761 57.6737C77.8807 58.1475 75.3986 57.9007 73.1434 56.9646C70.8881 56.0285 68.9609 54.445 67.605 52.4142C66.2492 50.3834 65.5256 47.9964 65.5256 45.5546C65.5246 43.932 65.8435 42.3251 66.464 40.8258C67.0845 39.3265 67.9944 37.9643 69.1418 36.8169C70.2891 35.6695 71.6514 34.7596 73.1507 34.1391C74.65 33.5186 76.2569 33.1997 77.8795 33.2007H77.9162ZM89.47 38.339C91.0331 40.8458 91.7366 43.7938 91.4739 46.7364L98.3372 42.5964V38.3904H89.47V38.339ZM48.6279 46.8392L48.5692 49.5111H38.7551C40.431 46.4075 41.1945 42.8931 40.9572 39.374H49.0977L50.1107 37.0397L50.1621 19.2245L53.1349 18.2996V7.83222H56.3941V18.351L80.2651 21.0817C83.4491 21.7582 86.5127 22.9114 89.3525 24.5023L89.8737 36.658L88.7286 37.3921C86.9455 35.0427 84.4481 33.3355 81.6117 32.5269C78.7753 31.7183 75.7531 31.852 72.9992 32.9078C70.2453 33.9637 67.9085 35.8848 66.3397 38.3824C64.771 40.88 64.0551 43.8192 64.2997 46.7584C59.0807 46.7584 53.891 46.8025 48.6279 46.8392ZM48.6279 43.0882V44.3141H61.9214L62.0389 43.0882H48.6279ZM55.5866 7.1202H53.9791V3.39127C53.9791 2.01861 53.9791 2.29755 54.9187 1.24787L55.9977 0H57.5832L56.3867 1.38734C55.4545 2.45904 55.572 2.12138 55.572 3.58946V7.11286L55.5866 7.1202ZM26.7168 19.2245L27.1058 5.13829H20.059L18.4295 19.1438L26.7168 19.2245ZM42.6235 16.2884L39.2249 20.2962L42.2197 18.9236L42.6235 16.2884ZM49.0023 36.5185V19.6943L45.8679 5.13829H47.5269V2.84808L42.2932 1.38H19.369L13.5701 3.94914V5.13829H17.1963L15.4052 19.1438H9.43013L7.54365 23.3425C5.72323 24.8106 3.21281 26.5796 1.67132 28.2606C0.430791 29.5965 0.283983 30.5141 2.03834 30.5141H4.88642C6.10493 30.5141 6.11961 30.4554 7.24269 29.0093C9.52702 26.0688 12.631 23.8707 16.1632 22.6924C19.6953 21.514 23.4973 21.408 27.0896 22.388C30.6818 23.3679 33.9034 25.3897 36.3479 28.1985C38.7924 31.0072 40.3503 34.477 40.8251 38.1701H48.3343L49.0023 36.5406V36.5185ZM62.0829 41.0696H59.8808C61.6865 34.0815 68.9242 27.7835 77.3289 29.7654C73.8927 29.6779 70.5259 30.7415 67.7635 32.787C65.0011 34.8326 63.0017 37.7427 62.0829 41.0549V41.0696Z" fill="#C70629"/>
</svg>
