<svg width="133" height="59" viewBox="0 0 133 59" fill="none" xmlns="http://www.w3.org/2000/svg">
<path fill-rule="evenodd" clip-rule="evenodd" d="M51.3774 14.5365C51.3774 16.9281 51.3774 18.211 51.3774 20.2287L59.2162 17.7017V14.6139C59.2162 13.4171 59.6916 12.2694 60.5379 11.4231C61.3841 10.5769 62.5319 10.1014 63.7287 10.1014L69.2854 10.0499V7.55513H76.067V10.0499H80.1926C81.558 9.88327 82.9366 10.2302 84.0604 11.0233C85.3497 12.0676 85.2853 14.4721 85.2853 14.4721V23.8515L86.9033 23.8902V2.89441H105.675L108.408 15.7098L108.731 15.742C112.591 16.1223 116.421 16.7685 120.192 17.6759V17.6372L120.946 17.8693C121.591 18.0369 122.178 18.1981 122.764 18.3721V15.4068C122.752 15.0005 122.821 14.5959 122.968 14.2171C123.116 13.8383 123.338 13.4931 123.622 13.2021L124.911 13.7501C124.527 14.1844 124.314 14.7434 124.311 15.323V18.6944C126.018 19.0541 127.631 19.7631 129.05 20.7766C131.261 23.7742 133.04 30.098 132.917 33.5146H128.005C127.728 33.1407 127.438 32.7797 127.129 32.4316C125.853 30.9905 124.277 29.847 122.512 29.0818C120.746 28.3165 118.835 27.9483 116.911 28.003H116.531C114.348 28.1324 112.231 28.7962 110.365 29.936C108.499 31.0758 106.941 32.6567 105.83 34.5396H105.785C104.366 37.1181 103.664 40.4573 104.096 44.5572L101.182 45.8465C100.705 41.334 101.427 37.55 102.942 34.5525L76.2604 34.7072C73.7398 29.4856 66.1718 25.9724 59.3 29.1504C56.4242 30.4461 54.0767 32.6843 52.6455 35.4951C51.2143 38.3059 50.7851 41.521 51.429 44.6088L48.5153 45.898C48.0253 41.276 48.786 37.4533 50.3589 34.43L49.1986 35.7708V32.741L48.8505 32.9409V35.3389L47.5161 37.0021H46.1881V34.5073L5.93065 58.578L0 56.599L5.86618 53.3758L10.6945 48.122L40.2639 28.9248H38.6781V22.6589C39.2318 21.0896 39.9378 19.5782 40.7861 18.1465L42.9778 17.4052H44.4798C45.0259 17.0906 45.5923 16.8128 46.1752 16.5736V13.4858H48.844H50.1333L51.3517 14.5043L51.3774 14.5365ZM51.2034 33.0118C51.7984 32.1174 52.4855 31.2877 53.2533 30.5364L51.3774 31.4647L51.2034 33.0118ZM59.3065 25.5469V24.9023L57.9205 25.0828C55.6643 26.3334 56.5087 25.7274 54.0527 27.1005V28.5445C56.8375 26.9135 57.2243 26.6106 59.3 25.5598L59.3065 25.5469ZM59.2355 23.31V22.169L53.5821 22.1239L53.5305 22.169L52.5056 21.389L51.3839 21.7822V23.6452C51.4741 23.6452 56.0124 23.4454 59.2549 23.31H59.2355ZM59.2355 20.9249V19.3971L54.1494 20.9313L59.2355 20.9249ZM117.279 36.7442C116.398 36.7442 115.536 37.0055 114.804 37.4949C114.071 37.9844 113.5 38.6801 113.163 39.494C112.826 40.308 112.738 41.2036 112.91 42.0677C113.082 42.9317 113.506 43.7254 114.129 44.3484C114.752 44.9714 115.545 45.3956 116.41 45.5675C117.274 45.7394 118.169 45.6512 118.983 45.314C119.797 44.9769 120.493 44.4059 120.982 43.6734C121.472 42.9409 121.733 42.0797 121.733 41.1987C121.736 40.613 121.622 40.0326 121.399 39.491C121.176 38.9494 120.848 38.4573 120.434 38.0432C120.02 37.629 119.528 37.301 118.986 37.0781C118.445 36.8551 117.864 36.7417 117.279 36.7442ZM105.617 43.6418C106.111 46.3419 107.55 48.7781 109.676 50.5143C111.802 52.2505 114.476 53.1735 117.22 53.118C123.37 53.118 129.101 47.7997 129.101 41.2373C129.1 38.7804 128.338 36.3842 126.918 34.3787C125.499 32.3731 123.493 30.857 121.176 30.039C118.859 29.221 116.346 29.1415 113.982 29.8112C111.618 30.481 109.52 31.8672 107.976 33.7789C105.456 36.8989 105.037 39.7869 105.585 43.6418H105.617ZM117.22 33.0053C115.595 33.0117 114.007 33.4994 112.658 34.407C111.309 35.3145 110.259 36.6013 109.64 38.1049C109.021 39.6085 108.862 41.2617 109.181 42.8559C109.501 44.4501 110.286 45.9139 111.436 47.0627C112.587 48.2115 114.052 48.9939 115.647 49.3111C117.241 49.6283 118.894 49.4662 120.397 48.8451C121.9 48.2241 123.185 47.172 124.09 45.8215C124.996 44.471 125.481 42.8826 125.485 41.2567C125.485 39.0734 124.617 36.9796 123.074 35.4358C121.53 33.892 119.436 33.0247 117.253 33.0247L117.22 33.0053ZM90.249 22.6267H104.012C104.657 20.5574 105.301 18.3786 104.843 16.1803L102.626 4.71229H90.249V22.6267ZM106.3 0H84.7953L86.3425 4.31906L86.4005 2.38515L86.9291 2.49474H106.3H107.074L106.3 0ZM45.3114 31.8901V33.6371L46.1881 33.1214V31.4066L45.3114 31.8901ZM48.8569 29.9562V31.5871L49.205 31.3809V29.7499L48.8569 29.9369V29.9562ZM51.3774 28.5702V30.1045L52.9439 29.1891V27.7193L51.3774 28.5509V28.5702ZM56.5345 24.5542L54.0204 24.5928V26.0046C55.1679 25.36 55.6514 25.0376 56.5345 24.5542ZM52.931 26.5977V24.7282L51.3645 24.9281V27.4421L52.931 26.5977ZM49.1921 28.6218V24.9732L48.844 25.0119V28.7894L49.1921 28.6025V28.6218ZM46.1752 30.2592V26.5139L45.3114 27.0747V30.7169L46.1881 30.2398L46.1752 30.2592ZM41.2825 29.737V32.8571L42.2945 32.2318V29.0795L41.3082 29.7241L41.2825 29.737ZM41.2825 34.2495V35.9642L42.3719 35.3196L42.3268 33.6242L41.2825 34.2366V34.2495ZM40.193 36.6024V34.8554L36.4541 37.0601V38.7619L40.193 36.5702V36.6024ZM40.193 33.5146V30.4075L36.4541 32.7862V35.6935L40.193 33.4824V33.5146ZM35.3647 39.4259V37.7047L31.2842 40.1221V41.7917L35.3647 39.3937V39.4259ZM35.3647 36.3703V33.4759L31.2842 36.0545V38.749L35.3647 36.3252V36.3703ZM30.2076 42.4621V40.7667C25.837 43.3453 30.343 40.6894 25.9143 43.3453V44.886C30.7878 42.0238 25.5533 45.1696 30.2076 42.4428V42.4621ZM30.2076 39.4452V36.7442L25.9143 39.8191V42.0044C31.0714 38.9231 25.3664 42.2945 30.2076 39.4259V39.4452ZM24.8249 45.5113V43.977C23.6775 44.6668 20.6348 46.5556 19.4938 47.2389V48.7344L24.8249 45.5113ZM24.8249 42.6555V40.5089L19.4938 43.8997V45.9174C20.6348 45.2341 23.6775 43.3388 24.8249 42.6555ZM18.3786 49.3726V47.8835C16.7799 48.8376 13.1119 51.0551 11.5132 52.0092V53.4532C13.1119 52.512 16.7799 50.3138 18.3786 49.3726ZM18.3786 46.562V44.5894L13.5825 47.6257L11.8677 50.5072C13.46 49.5596 16.7799 47.5161 18.3786 46.562ZM10.4495 54.0849V52.6538L2.85573 56.5732L5.15708 57.0954L10.4689 54.0849H10.4495ZM10.4495 51.3259L11.9258 48.5604L11.2489 49.1277L7.81943 52.7505C9.66308 51.6675 8.60588 52.4218 10.4495 51.3259ZM46.1881 17.5147C45.8836 17.6348 45.5902 17.7815 45.3114 17.9531V25.6887L46.1881 25.1408V17.5147ZM49.1728 24.0965V20.3318L48.8247 20.4349V24.1351L49.1406 24.0965H49.1728ZM48.8569 18.6042L49.205 18.4881V14.3496H48.8569V18.6042ZM64.8245 32.9989C63.1975 32.9989 61.607 33.481 60.2538 34.3845C58.9006 35.2879 57.8455 36.572 57.2217 38.0747C56.5978 39.5774 56.4333 41.2313 56.7489 42.8274C57.0644 44.4235 57.8459 45.8904 58.9946 47.0427C60.1433 48.195 61.6077 48.981 63.2028 49.3015C64.798 49.6221 66.4523 49.4627 67.957 48.8436C69.4616 48.2245 70.749 47.1734 71.6567 45.8231C72.5643 44.4727 73.0514 42.8837 73.0565 41.2567C73.0565 39.0734 72.1892 36.9796 70.6454 35.4358C69.1016 33.892 67.0078 33.0247 64.8245 33.0247V32.9989ZM53.2211 43.6354C53.715 46.3354 55.1537 48.7716 57.2797 50.5079C59.4057 52.2441 62.0802 53.167 64.8245 53.1115C70.9679 53.1115 76.7116 47.7933 76.7116 41.2567C76.7215 38.7942 75.9655 36.3895 74.5484 34.3756C73.1312 32.3618 71.123 30.8383 68.8018 30.0162C66.4806 29.194 63.9612 29.1139 61.5924 29.7869C59.2236 30.4599 57.1227 31.8527 55.5805 33.7724C53.0599 36.8925 52.6409 39.7805 53.1889 43.6354H53.2211ZM64.8439 36.7442C63.9629 36.7442 63.1017 37.0055 62.3691 37.4949C61.6366 37.9844 61.0657 38.6801 60.7285 39.494C60.3914 40.308 60.3032 41.2036 60.475 42.0677C60.6469 42.9317 61.0712 43.7254 61.6941 44.3484C62.3171 44.9714 63.1108 45.3956 63.9749 45.5675C64.8389 45.7394 65.7346 45.6512 66.5485 45.314C67.3624 44.9769 68.0581 44.4059 68.5476 43.6734C69.0371 42.9409 69.2983 42.0797 69.2983 41.1987C69.2983 40.0173 68.829 38.8843 67.9936 38.0489C67.1583 37.2135 66.0253 36.7442 64.8439 36.7442Z" fill="#C70629"/>
</svg>
