<svg width="107" height="53" viewBox="0 0 107 53" fill="none" xmlns="http://www.w3.org/2000/svg">
<path fill-rule="evenodd" clip-rule="evenodd" d="M38.3427 5.35738C38.6663 4.14401 40.5754 0.261197 44.6523 0.261197C51.2046 -0.952211 64.0664 2.2026 70.8613 6.81344L71.5893 6.08541C76.6046 8.26949 87.8486 15.5983 88.8193 23.5581L87.8486 24.0434C87.8486 24.0434 77.6562 12.1523 64.5517 8.75484C51.4472 5.35738 38.3427 6.08541 38.3427 6.08541V5.35738ZM12.6191 18.4619V25.4995C12.6191 26.4702 12.6191 30.8383 14.3179 32.2944C15.6051 33.3977 17.5891 32.4109 19.7418 31.3401C20.43 30.9978 21.1354 30.6469 21.8408 30.353C24.7529 29.1396 31.7905 28.8969 37.1294 28.8969C47.0791 28.8969 53.146 29.625 57.2714 31.081C61.3969 32.5371 62.125 32.2944 67.9492 28.8969C72.6085 26.179 82.5097 24.8523 86.8779 24.5288C84.9365 22.3447 73.0454 9.24022 53.146 7.78417C33.2466 6.32811 19.8994 8.02684 16.9873 8.51219C14.3635 8.94949 13.9067 10.1748 13.487 11.3006C13.4409 11.4243 13.3952 11.5468 13.3472 11.667C12.8618 12.8804 12.6191 15.7925 12.6191 18.4619ZM68.1919 30.8384C74.077 30.8384 86.8741 33.0903 91.7314 42.0218V51.4657H89.79V51.951H91.7314V51.9511H93.1875V51.951H95.1288V51.4657H93.1875V42.7435L104.593 45.1563L106.292 42.4868L95.6142 36.1773V33.0225L87.1206 25.7421C82.4288 25.6612 71.3466 27.9262 68.1919 30.8384ZM64.309 39.332C63.9046 38.5231 63.4839 36.7596 65.0371 36.1772C66.5902 35.5948 73.288 33.8314 76.4428 33.0224C77.1708 32.9415 78.7725 33.1195 79.3549 34.4785C79.7077 35.3016 80.6124 38.6295 81.4329 41.6471L81.4329 41.6473C81.967 43.6117 82.4653 45.4446 82.7524 46.3696L82.6661 46.3459C81.7568 46.0956 80.1311 45.648 78.6269 47.3403C76.745 47.0432 73.2745 45.5636 70.6877 44.4608C69.049 43.7622 67.765 43.2148 67.4638 43.2148C66.4931 43.2148 64.6766 41.0307 64.309 39.332ZM62.1249 42.0014C62.1249 47.6305 57.5617 52.1938 51.9326 52.1938C46.3035 52.1938 41.7402 47.6305 41.7402 42.0014C41.7402 36.3723 46.3035 31.809 51.9326 31.809C57.5617 31.809 62.1249 36.3723 62.1249 42.0014ZM58.2421 42.0014C58.2421 45.4861 55.4173 48.3109 51.9326 48.3109C48.4479 48.3109 45.623 45.4861 45.623 42.0014C45.623 38.5167 48.4479 35.6918 51.9326 35.6918C55.4173 35.6918 58.2421 38.5167 58.2421 42.0014ZM54.3593 42.0014C54.3593 43.3416 53.2728 44.4281 51.9325 44.4281C50.5923 44.4281 49.5058 43.3416 49.5058 42.0014C49.5058 40.6611 50.5923 39.5746 51.9325 39.5746C53.2728 39.5746 54.3593 40.6611 54.3593 42.0014ZM36.4013 42.0014C36.4013 47.6305 31.8381 52.1938 26.209 52.1938C20.5799 52.1938 16.0166 47.6305 16.0166 42.0014C16.0166 36.3723 20.5799 31.809 26.209 31.809C31.8381 31.809 36.4013 36.3723 36.4013 42.0014ZM32.5185 42.0014C32.5185 45.4861 29.6936 48.3109 26.209 48.3109C22.7243 48.3109 19.8994 45.4861 19.8994 42.0014C19.8994 38.5167 22.7243 35.6918 26.209 35.6918C29.6936 35.6918 32.5185 38.5167 32.5185 42.0014ZM28.6357 42.0014C28.6357 43.3416 27.5492 44.4281 26.2089 44.4281C24.8687 44.4281 23.7822 43.3416 23.7822 42.0014C23.7822 40.6611 24.8687 39.5746 26.2089 39.5746C27.5492 39.5746 28.6357 40.6611 28.6357 42.0014ZM82.5097 49.5243C82.5097 50.0604 82.0751 50.495 81.539 50.495C81.0029 50.495 80.5683 50.0604 80.5683 49.5243C80.5683 48.9882 81.0029 48.5536 81.539 48.5536C82.0751 48.5536 82.5097 48.9882 82.5097 49.5243ZM83.9658 49.5243C83.9658 50.8646 82.8793 51.9511 81.539 51.9511C80.1988 51.9511 79.1123 50.8646 79.1123 49.5243C79.1123 48.184 80.1988 47.0975 81.539 47.0975C82.8793 47.0975 83.9658 48.184 83.9658 49.5243ZM0 18.9472C0 18.143 0.651897 17.4911 1.45605 17.4911H9.70702C10.5112 17.4911 11.1631 18.143 11.1631 18.9472V28.6542C11.1631 29.4584 10.5112 30.1103 9.70702 30.1103H1.45605C0.651898 30.1103 0 29.4584 0 28.6542V18.9472Z" fill="#C70629"/>
</svg>
