<svg width="100" height="78" viewBox="0 0 100 78" fill="none" xmlns="http://www.w3.org/2000/svg">
<path fill-rule="evenodd" clip-rule="evenodd" d="M90.0757 77.983C94.9291 77.983 98.8636 74.0485 98.8636 69.1951C98.8636 64.3417 94.9291 60.4072 90.0757 60.4072C85.2223 60.4072 81.2878 64.3417 81.2878 69.1951C81.2878 74.0485 85.2223 77.983 90.0757 77.983ZM90.0757 74.4678C92.9877 74.4678 95.3484 72.1071 95.3484 69.1951C95.3484 66.283 92.9877 63.9224 90.0757 63.9224C87.1637 63.9224 84.803 66.283 84.803 69.1951C84.803 72.1071 87.1637 74.4678 90.0757 74.4678Z" fill="#C70629"/>
<path d="M92.2726 69.195C92.2726 70.4084 91.289 71.392 90.0756 71.392C88.8623 71.392 87.8787 70.4084 87.8787 69.195C87.8787 67.9817 88.8623 66.998 90.0756 66.998C91.289 66.998 92.2726 67.9817 92.2726 69.195Z" fill="#C70629"/>
<path fill-rule="evenodd" clip-rule="evenodd" d="M41.1931 77.983C46.0465 77.983 49.981 74.0485 49.981 69.1951C49.981 64.3417 46.0465 60.4072 41.1931 60.4072C36.3397 60.4072 32.4053 64.3417 32.4053 69.1951C32.4053 74.0485 36.3397 77.983 41.1931 77.983ZM41.1931 74.4678C44.1052 74.4678 46.4659 72.1071 46.4659 69.1951C46.4659 66.283 44.1052 63.9224 41.1931 63.9224C38.2811 63.9224 35.9204 66.283 35.9204 69.1951C35.9204 72.1071 38.2811 74.4678 41.1931 74.4678Z" fill="#C70629"/>
<path d="M43.39 69.195C43.39 70.4084 42.4064 71.392 41.1931 71.392C39.9797 71.392 38.9961 70.4084 38.9961 69.195C38.9961 67.9817 39.9797 66.998 41.1931 66.998C42.4064 66.998 43.39 67.9817 43.39 69.195Z" fill="#C70629"/>
<path fill-rule="evenodd" clip-rule="evenodd" d="M81.6437 38.6582C80.2934 37.8177 76.9701 36.4734 72.891 37.0562C70.1512 37.4476 67.3794 38.629 65.0182 40.1588C62.6507 41.6926 60.7615 43.5339 59.7451 45.1856C58.7136 46.8617 57.7861 49.4281 57.4222 52.0419C57.0552 54.6782 57.285 57.1857 58.3634 58.8632C59.2718 60.2763 60.5952 61.4374 61.8573 62.2839C63.0971 63.1154 64.1957 63.5895 64.6792 63.7135L69.5247 64.2519C72.8285 64.2519 74.7118 64.2468 76.1864 63.9583C77.5985 63.682 78.651 63.14 80.2442 61.9451C80.4509 61.7901 80.8635 61.2895 81.3786 60.4348C81.8711 59.6179 82.4012 58.5728 82.8658 57.4385C83.3309 56.3033 83.7229 55.0969 83.949 53.9559C84.1772 52.8046 84.2253 51.7754 84.0523 50.9681L84.0507 50.9609L81.6437 38.6582ZM72.658 35.425C77.5085 34.7321 81.4348 36.4708 82.8651 37.4925L83.1318 37.683L85.665 50.6303C85.902 51.7435 85.8146 53.0185 85.5653 54.2762C85.3135 55.5469 84.8847 56.857 84.3906 58.0631C83.8962 59.2701 83.3288 60.3913 82.7898 61.2854C82.2736 62.1418 81.721 62.8972 81.2329 63.2633C79.5307 64.54 78.2489 65.2338 76.5028 65.5754C74.845 65.8997 72.785 65.8997 69.589 65.8997H69.4335L64.3973 65.3401L64.3506 65.3293C63.62 65.1607 62.3032 64.567 60.9395 63.6523C59.5606 62.7275 58.0463 61.4169 56.9774 59.7543C55.5843 57.5872 55.4021 54.6022 55.7902 51.8147C56.1815 49.0047 57.1763 46.216 58.3418 44.322C59.5223 42.4037 61.6152 40.4002 64.1222 38.7759C66.6356 37.1476 69.6308 35.8574 72.658 35.425Z" fill="#C70629"/>
<path d="M40.0946 56.2879L37.623 59.3087C43.1155 57.661 46.9374 60.3845 48.6079 62.0549C51.0795 64.5265 51.3541 67.2727 51.6287 69.4697H79.3654C79.3654 67.2727 79.793 66.2038 80.1893 65.3504C83.7593 57.661 90.6337 58.4506 92.8218 59.0341C96.9411 60.1326 98.8635 63.9773 98.8635 63.9773H99.1381V46.9508H93.6457L88.4279 51.0701H85.9563C85.4986 52.3517 84.0889 55.7387 82.1116 59.0341C80.1343 62.3296 77.0769 63.7027 75.7953 63.9773H63.1628C59.2082 62.6591 56.938 58.1187 56.2973 56.0133H53.8257L52.7272 57.3864H48.6079L47.5094 56.2879H40.0946Z" fill="#C70629"/>
<path fill-rule="evenodd" clip-rule="evenodd" d="M74.6968 64.8012V36.2406H76.3445V64.8012H74.6968Z" fill="#C70629"/>
<path fill-rule="evenodd" clip-rule="evenodd" d="M37.0197 59.7199C35.7494 60.3407 34.7085 61.12 34.1508 61.6347L33.4058 60.8276C34.0381 60.2438 35.1668 59.4028 36.5374 58.733C37.9044 58.0648 39.561 57.5431 41.2322 57.6625L41.1539 58.7582C39.7494 58.6578 38.2936 59.0973 37.0197 59.7199Z" fill="#C70629"/>
<path fill-rule="evenodd" clip-rule="evenodd" d="M35.426 53.5352L40.536 57.4428L40.2024 57.8791L35.9753 54.6466V59.5833H35.426V53.5352Z" fill="#C70629"/>
<path d="M32.9546 53.8163H35.7008V56.0132H32.9546V53.8163Z" fill="#C70629"/>
<path fill-rule="evenodd" clip-rule="evenodd" d="M40.9184 45.8523V56.8371H40.3691V45.8523H40.9184Z" fill="#C70629"/>
<path d="M40.6438 46.127H41.7423V49.9716H40.6438V46.127Z" fill="#C70629"/>
<path d="M85.8934 40.9475L91.3286 41.0928L93.3709 45.7226L88.9806 48.9945L87.7847 50.1281L82.6214 47.0762L82.8519 45.7226L67.908 37.9413L62.1571 35.068L56.4914 36.2763L55.4409 31.9746L43.9392 26.2279L48.7018 22.4701L85.8934 40.9475Z" fill="#C70629"/>
<path d="M30.1086 17.3831L43.5583 24.6587L46.7065 22.0021L32.4828 14.6609L32.7582 13.7098L31.5184 12.2407L28.3765 10.2207L15.4164 18.2827L10.2279 15.1151L12.3603 24.4551L17.2273 26.816L17.0369 24.4613L19.667 23.3198L20.6048 21.4504L30.1086 17.3831Z" fill="#C70629"/>
<path d="M11.2053 6.85608C15.1559 14.1793 18.4457 28.8257 0 28.8257L11.2053 6.85608Z" fill="#C70629"/>
<path d="M68.9298 58.2102H55.4734V62.3295L59.0435 67.8219L79.9146 63.9772L84.8578 54.3655H74.6968L68.9298 58.2102Z" fill="#C70629"/>
<path d="M61.5989 51.0353C61.7716 50.786 62.1138 50.7239 62.3631 50.8966C62.6125 51.0694 62.6746 51.4115 62.5018 51.6609L57.7876 58.4659C57.6149 58.7153 57.2727 58.7774 57.0234 58.6046C56.774 58.4319 56.7119 58.0897 56.8846 57.8404L61.5989 51.0353Z" fill="#C70629"/>
<path d="M61.5989 56.1901C61.7716 55.9408 62.1138 55.8787 62.3631 56.0514C62.6125 56.2242 62.6746 56.5663 62.5018 56.8157L57.7876 63.6207C57.6149 63.87 57.2727 63.9322 57.0234 63.7594C56.774 63.5867 56.7119 63.2445 56.8846 62.9952L61.5989 56.1901Z" fill="#C70629"/>
</svg>
