<svg width="87" height="57" viewBox="0 0 87 57" fill="none" xmlns="http://www.w3.org/2000/svg">
<path fill-rule="evenodd" clip-rule="evenodd" d="M29.7817 44.8626C29.1117 43.2993 28.8939 39.1601 32.1267 37.8201C35.1448 36.5691 55.5182 25.5056 66.6953 19.4056C71.2042 16.9449 73.9712 18.3417 73.9534 23.4783C73.935 28.8004 73.9324 35.1088 74.0013 37.15C74.0013 37.15 61.7236 41.5036 61.7235 41.505V47.535V52.8949H75.0063V56.2525H38.144C35.6075 56.2525 33.3423 54.6653 32.4763 52.2812L29.7817 44.8626ZM57 36H51V38H57V36ZM47 42H57V44H47V42ZM57 48H44V50H57V48Z" fill="#C70629"/>
<path d="M84.1685 30.1152H75.7935V38.1896L63.7336 42.8451V50.8851H70.7686H84.1685L85.5467 48.2539C87.03 45.4222 87.3936 42.136 86.5652 39.0485L84.1685 30.1152Z" fill="#C70629"/>
<path d="M22.4043 43.6859L25.4273 53.6516C25.8188 54.9425 24.8528 56.245 23.5038 56.245H2.01295C-0.114501 56.245 -0.783721 53.3721 1.12474 52.432L20.5299 42.8728C21.2717 42.5074 22.1643 42.8945 22.4043 43.6859Z" fill="#C70629"/>
<path d="M28.8939 47.5352L25.5439 49.2101L27.8889 56.2451H32.2439L28.8939 47.5352Z" fill="#C70629"/>
<path fill-rule="evenodd" clip-rule="evenodd" d="M24.5021 6.13072L8.12414 15.4475V33.9955L24.5021 43.3122L40.88 33.9955V15.4475L24.5021 6.13072ZM25.8272 3.03046C25.0056 2.56309 23.9985 2.56309 23.1769 3.03046L6.12902 12.7283C5.29147 13.2048 4.77417 14.0942 4.77417 15.0578V34.3851C4.77417 35.3487 5.29147 36.2381 6.12902 36.7146L23.1769 46.4125C23.9985 46.8798 25.0056 46.8798 25.8272 46.4125L42.8751 36.7146C43.7127 36.2381 44.2299 35.3487 44.2299 34.3851V15.0578C44.2299 14.0942 43.7127 13.2048 42.8751 12.7283L25.8272 3.03046Z" fill="#C70629"/>
<path fill-rule="evenodd" clip-rule="evenodd" d="M6.12902 12.7283L23.1769 3.03046C23.9985 2.56309 25.0056 2.56309 25.8272 3.03046L42.8751 12.7283C42.8756 12.7286 42.8761 12.7289 42.8765 12.7292C43.7132 13.2058 44.2299 14.0947 44.2299 15.0578V34.3851C44.2299 35.3487 43.7127 36.2381 42.8751 36.7146L25.8272 46.4125C25.8263 46.413 25.8253 46.4135 25.8244 46.414C25.0045 46.8791 24.0005 46.8793 23.1805 46.4145C23.1793 46.4138 23.1781 46.4131 23.1769 46.4125L6.12902 36.7146C6.12813 36.7141 6.12724 36.7136 6.12636 36.7131C5.29037 36.2362 4.77417 35.3477 4.77417 34.3851V15.0578C4.77417 14.0942 5.29147 13.2048 6.12902 12.7283ZM8.12414 33.9955V15.4475L24.5021 6.13072L40.88 15.4475V33.9955L24.5021 43.3122L8.12414 33.9955Z" fill="#C70629"/>
<path fill-rule="evenodd" clip-rule="evenodd" d="M21.9508 23.16C20.975 24.8501 21.5541 27.0113 23.2442 27.9871L41.4663 39.1205C43.1565 40.0963 45.3176 39.5172 46.2934 37.8271C47.2692 36.1369 46.6901 33.9758 45 33L26.7779 21.8666C25.0878 20.8908 22.9266 21.4699 21.9508 23.16ZM24.8739 26.1297C25.614 26.1297 26.2139 25.5298 26.2139 24.7897C26.2139 24.0497 25.614 23.4497 24.8739 23.4497C24.1339 23.4497 23.534 24.0497 23.534 24.7897C23.534 25.5298 24.1339 26.1297 24.8739 26.1297Z" fill="#C70629"/>
<path fill-rule="evenodd" clip-rule="evenodd" d="M41.9336 13.6709L25.543 22.9936V4.28662H23.533V22.9803L7.42348 13.6742L6.41806 15.4147L22.5407 24.7283L6.41211 34.1934L7.42943 35.9269L23.533 26.4765V44.4863H25.543V26.4629L41.9277 35.9303L42.9333 34.19L26.5586 24.7283L42.9273 15.418L41.9336 13.6709ZM24.6756 26.3964C25.6007 26.3964 26.3506 25.6465 26.3506 24.7214C26.3506 23.7964 25.6007 23.0465 24.6756 23.0465C23.7505 23.0465 23.0006 23.7964 23.0006 24.7214C23.0006 25.6465 23.7505 26.3964 24.6756 26.3964Z" fill="#C70629"/>
<path fill-rule="evenodd" clip-rule="evenodd" d="M24.8739 26.7997C25.984 26.7997 26.8839 25.8998 26.8839 24.7898C26.8839 23.6797 25.984 22.7798 24.8739 22.7798C23.7638 22.7798 22.8639 23.6797 22.8639 24.7898C22.8639 25.8998 23.7638 26.7997 24.8739 26.7997ZM24.8739 30.1497C27.8341 30.1497 30.2338 27.75 30.2338 24.7898C30.2338 21.8295 27.8341 19.4298 24.8739 19.4298C21.9136 19.4298 19.5139 21.8295 19.5139 24.7898C19.5139 27.75 21.9136 30.1497 24.8739 30.1497Z" fill="#C70629"/>
<path fill-rule="evenodd" clip-rule="evenodd" d="M20.8539 4.88247e-05L26.2139 3.35002L25.5037 4.48633L20.1437 1.13636L20.8539 4.88247e-05Z" fill="#C70629"/>
<path fill-rule="evenodd" clip-rule="evenodd" d="M0.754109 15.9481L6.19421 12.7299L6.87646 13.8832L1.43636 17.1014L0.754109 15.9481Z" fill="#C70629"/>
<path fill-rule="evenodd" clip-rule="evenodd" d="M4.77402 40.4904L4.77403 34.1697L6.11401 34.1697L6.11401 40.4904L4.77402 40.4904Z" fill="#C70629"/>
<path fill-rule="evenodd" clip-rule="evenodd" d="M44.3039 15.7006L44.3039 9.37988L42.9639 9.37988L42.9639 15.7006L44.3039 15.7006Z" fill="#C70629"/>
</svg>
