<svg width="121" height="48" viewBox="0 0 121 48" fill="none" xmlns="http://www.w3.org/2000/svg">
<path fill-rule="evenodd" clip-rule="evenodd" d="M67.6434 5.79569L89.5042 5.01998L89.6354 8.717L67.7737 9.46886L67.6434 5.79569ZM67.1907 9.48891L66.9829 3.6303C66.9257 2.02052 68.1844 0.669221 69.7942 0.612099L86.9914 0.00186984C88.6011 -0.0552522 89.9524 1.20343 90.0096 2.81321L90.2183 8.69695L92.563 8.61631L93.1464 9.19964L49.5431 21.3036L44.7802 21.7921L49.2516 22.7618L121 3.22049L119.396 6.42876V16.9285H117.209V7.44957L60.5762 23.3698L99.5868 22.1114L91.2165 33.5093L88.0982 33.7815C88.4404 34.8099 88.6257 35.9099 88.6257 37.0532C88.6257 42.7716 83.9901 47.4072 78.2718 47.4072C73.8365 47.4072 70.0527 44.6185 68.5779 40.6989H59.1679V41.428H52.168V40.6989H38.1013C35.2774 40.6989 32.5874 39.4949 30.706 37.3889L30.2629 36.8929L0.807157 44.7478L0 42.8977L15.6946 33.0102L27.4594 11.0954L27.5276 11.1321L27.5236 10.9792L28.7955 10.9459L28.6266 4.45055C28.5848 2.8403 29.8562 1.501 31.4664 1.45914L39.3282 1.25477C40.9385 1.21291 42.2778 2.48434 42.3196 4.0946L42.482 10.3387L43.4162 10.3065L43.255 4.10395C43.2132 2.4937 44.4846 1.15439 46.0948 1.11253L63.297 0.665354C64.9073 0.623495 66.2466 1.89493 66.2884 3.50518L66.4446 9.51457L67.1907 9.48891ZM59.1679 40.1156H68.3782C68.2896 39.8291 68.2131 39.5372 68.1493 39.2407H59.1679V40.1156ZM52.168 39.2407V40.1156H38.1013C35.4435 40.1156 32.9117 38.9824 31.141 37.0003L30.8946 36.7245L32.0615 36.4133C33.9076 38.2193 36.3945 39.2407 38.9956 39.2407H52.168ZM59.1679 38.6574H68.0413C67.9965 38.3695 67.9636 38.0776 67.9431 37.7824H59.1679V38.6574ZM52.168 37.7824V38.6574H38.9956C36.6654 38.6574 34.4325 37.7864 32.7244 36.2365L34.0384 35.8861C35.7188 37.108 37.757 37.7824 39.8706 37.7824H52.168ZM59.1679 37.1991V36.7614H52.168V37.1991H39.8706C38.0455 37.1991 36.2801 36.6648 34.7798 35.6884L35.6944 35.4445L55.2708 34.7713L68.3191 34.1891C68.0578 35.0987 67.9178 36.0596 67.9178 37.0532C67.9178 37.0741 67.9179 37.0949 67.918 37.1157C67.9182 37.1435 67.9184 37.1713 67.9188 37.1991H59.1679ZM30.5186 34.7118L29.3702 35.018L24.6769 29.7643L25.6081 29.1777L30.5186 34.7118ZM6.77254 41.0441L24.1764 30.0796L28.7385 35.1865L6.77254 41.0441ZM26.9993 28.3012L26.1083 28.8625L31.1492 34.5436L31.8974 34.3441L28.6514 30.1631L26.9993 28.3012ZM28.2293 12.1277L17.6954 31.7496L29.4004 24.3755L37.5554 24.1124L32.4814 23.0535L32.4809 23.0535L30.5852 21.5952L29.8943 19.3155C29.4333 17.794 29.9704 16.1465 31.2395 15.189L34.865 12.4541C35.1103 12.269 35.3632 12.0956 35.6227 11.9343L28.2293 12.1277ZM52.9263 9.97949L65.8616 9.53462L65.7621 5.70706L43.895 6.27551L43.9973 10.2116L52.9263 9.97949ZM67.6227 5.21274L89.4835 4.43703L89.4266 2.8339C89.3809 1.54607 88.2999 0.539127 87.012 0.584824L69.8149 1.19505C68.5271 1.24075 67.5201 2.32179 67.5658 3.60961L67.6227 5.21274ZM49.2516 26.5533L46.0329 25.8816L43.8916 25.9507L50.1304 32.9052L54.679 32.7488L59.6697 25.4417L52.368 25.6773L49.2516 26.5533ZM99.2712 14.012L100.146 18.5327L95.9171 20.7202L74.0425 21.741L99.2712 14.012ZM71.5564 29.1721C70.5936 29.9933 69.7831 30.9878 69.1732 32.1073L57.2254 32.6404L62.1978 25.3602L67.1053 25.2019L71.5564 29.1721ZM80.8411 27.0206C80.0196 26.8108 79.1587 26.6993 78.2718 26.6993C76.4635 26.6993 74.7636 27.1628 73.2842 27.9775L70.0654 25.1064L83.8177 24.6628L82.7197 25.5326H71.7094L72.2927 25.9701L73.0219 26.845C74.4145 26.1023 78.0145 25.0227 81.6887 26.3492L80.8411 27.0206ZM87.2021 31.8103C86.2191 30.1397 84.7808 28.7692 83.0577 27.8694L87.2454 24.5522L95.4558 24.2873L90.1181 31.5558L87.2021 31.8103ZM78.2718 43.2056C81.6696 43.2056 84.4241 40.4511 84.4241 37.0532C84.4241 33.6554 81.6696 30.9009 78.2718 30.9009C74.8739 30.9009 72.1194 33.6554 72.1194 37.0532C72.1194 40.4511 74.8739 43.2056 78.2718 43.2056ZM76.2187 37.0532C76.2187 38.187 77.1379 39.1062 78.2718 39.1062C79.4056 39.1062 80.3248 38.187 80.3248 37.0532C80.3248 35.9193 79.4056 35.0001 78.2718 35.0001C77.1379 35.0001 76.2187 35.9193 76.2187 37.0532ZM41.226 26.0367L47.4697 32.9967L38.9882 33.2884L34.2206 26.2627L41.226 26.0367ZM31.8061 26.3406L36.5772 33.3713L35.3924 33.4121L34.0388 33.7731L28.8738 27.1203L30.02 26.3982L31.8061 26.3406ZM85.7091 28.595L88.1882 25.5326H93.584L89.5007 30.7825H87.4591C87.2258 29.9658 86.1952 28.9839 85.7091 28.595ZM46.0433 26.845L50.564 31.8033H53.4806L57.418 26.5534L46.0433 26.845ZM62.9596 26.5534L59.168 31.8033L68.0636 31.3658L69.6678 29.47L66.3137 26.5534H62.9596ZM41.0849 32.3867L36.2725 27.2826L40.7932 26.991L45.4598 32.3867H41.0849ZM65.747 5.12393L43.8798 5.69238L43.8381 4.08879C43.8046 2.80059 44.8218 1.72915 46.11 1.69566L63.3122 1.24848C64.6004 1.21499 65.6718 2.23214 65.7053 3.52034L65.747 5.12393ZM29.2666 6.62211L41.7934 6.29647L41.8957 10.2326L29.3689 10.5582L29.2666 6.62211ZM29.2514 6.03899L41.7782 5.71335L41.7365 4.10976C41.703 2.82155 40.6316 1.8044 39.3434 1.83789L31.4816 2.04226C30.1934 2.07575 29.1762 3.14719 29.2097 4.4354L29.2514 6.03899Z" fill="#C70629"/>
</svg>
