<svg width="14" height="17" viewBox="0 0 14 17" fill="none" xmlns="http://www.w3.org/2000/svg">
<path fill-rule="evenodd" clip-rule="evenodd" d="M13 6.52632V16H1V6.52632H3.24599H10.754H13ZM10 8H4V14H10V8Z" fill="#C70629"/>
<path d="M13 16V17H14V16H13ZM13 6.52632H14V5.52632H13V6.52632ZM1 16H0V17H1V16ZM1 6.52632V5.52632H0V6.52632H1ZM4 8V7H3V8H4ZM10 8H11V7H10V8ZM4 14H3V15H4V14ZM10 14V15H11V14H10ZM14 16V6.52632H12V16H14ZM1 17H13V15H1V17ZM0 6.52632V16H2V6.52632H0ZM3.24599 5.52632H1V7.52632H3.24599V5.52632ZM10.754 5.52632H3.24599V7.52632H10.754V5.52632ZM13 5.52632H10.754V7.52632H13V5.52632ZM4 9H10V7H4V9ZM5 14V8H3V14H5ZM10 13H4V15H10V13ZM9 8V14H11V8H9ZM4.24599 6.52632V4.75401H2.24599V6.52632H4.24599ZM9.75401 4.75401V6.52632H11.754V4.75401H9.75401ZM11.754 4.75401C11.754 2.12845 9.62557 0 7 0V2C8.521 2 9.75401 3.23301 9.75401 4.75401H11.754ZM4.24599 4.75401C4.24599 3.23301 5.479 2 7 2V0C4.37443 0 2.24599 2.12844 2.24599 4.75401H4.24599Z" fill="#C70629"/>
</svg>
