<svg width="88" height="62" viewBox="0 0 88 62" fill="none" xmlns="http://www.w3.org/2000/svg">
<circle cx="18.8795" cy="43.6667" r="16.8333" stroke="#C70629" stroke-width="3"/>
<circle cx="18.8796" cy="43.6667" r="7.16668" stroke="#C70629" stroke-width="3"/>
<circle cx="73.5" cy="47.5" r="13" stroke="#C70629" stroke-width="3"/>
<circle cx="73.5" cy="47.5" r="4" stroke="#C70629" stroke-width="3"/>
<path d="M61.0959 47.4737L42.0784 47.4737C42.0784 47.4737 43.9731 32.3158 31.9731 24.1053C26.717 20.509 20.9761 19.942 16.1836 20.4405C9.23627 20.4405 3.55206 25.3684 3.55206 25.3684" stroke="#C70629" stroke-width="3"/>
<path d="M16.3591 20.3158L18.8854 2H33.7275H48.5696H52L53 7.5H48.5696L51.0959 25.3684H63.7275C68.8146 25.3684 70.0023 25.3684 71.6232 25.3684C74.1722 25.3684 76.3136 27.2859 76.5934 29.8195L77 33.5" stroke="#C70629" stroke-width="3" stroke-linecap="round"/>
<path d="M31.5 14.5L32.7684 24.7778" stroke="#C70629" stroke-width="3"/>
<path d="M51.1017 25.3333L52.5 35" stroke="#C70629" stroke-width="3"/>
</svg>
