<svg width="16" height="19" viewBox="0 0 16 19" fill="none" xmlns="http://www.w3.org/2000/svg">
<path d="M15.9859 15.5299L15.9926 15.5285C15.9926 15.5285 16.0098 16.6837 15.8188 17.1525C15.8188 17.1525 12.8984 19 8.00678 19L8.00924 18.8924L7.99975 19C3.10844 19 0.187729 17.1525 0.187729 17.1525C-0.00328006 16.6837 0.0139566 15.5285 0.0139566 15.5285C-0.0461953 14.6971 0.0259167 13.0176 1.52092 12.6475C3.52669 12.1509 5.19054 11.3942 5.19054 11.3942C5.51909 10.9532 5.57819 10.0299 5.57819 10.0299C4.95064 9.37266 4.67204 8.5495 4.55525 7.85315C4.51375 7.88296 4.46591 7.90284 4.41314 7.90147C4.22459 7.8977 3.97203 7.62902 3.69976 6.61088C3.35714 5.32954 3.67865 5.07663 3.98962 5.07903C4.06138 5.07937 4.07298 5.07834 4.13525 5.09651L4.13595 5.0684C4.13595 5.0684 3.21397 2.07359 5.43185 0.75661C5.43185 0.75661 5.0421 0.449213 5.07235 0.00645031C5.07235 0.00645031 6.08895 0.118511 7.0637 0.120567C7.50657 0.121595 7.94065 0.0996634 8.26639 0.0338659C8.39654 0.00782106 8.52845 -0.00280254 8.65931 0.000624416C9.5746 0.0232423 10.4512 0.717543 10.6056 1.38751C10.6056 1.38751 10.619 1.38648 10.6436 1.38648C10.9328 1.38614 12.75 1.52116 11.878 5.08006C11.878 5.08006 11.8773 5.08485 11.8759 5.09342C11.9181 5.08485 11.9624 5.07903 12.0067 5.07868C12.3187 5.07492 12.6431 5.32543 12.2994 6.61053C12.0247 7.63725 11.7703 7.90181 11.5814 7.90112C11.5185 7.90078 11.4629 7.87131 11.4161 7.83087C11.3011 8.53271 11.0232 9.36717 10.3872 10.032L10.421 10.0299C10.421 10.0299 10.473 10.8473 10.7527 11.3113C10.7646 11.3171 12.4791 12.1526 14.4779 12.6475C15.975 13.0172 16.0464 14.6988 15.9859 15.5299Z" fill="#C70629"/>
</svg>
